<svg xmlns="http://www.w3.org/2000/svg" width="86.602" height="100" viewBox="0 0 86.602 100">
  <g id="Path_165" data-name="Path 165" transform="translate(-351.852 -149.362)" fill="#d51030" stroke-miterlimit="10">
    <path d="M 395.1529235839844 248.2073211669922 L 352.8516540527344 223.78466796875 L 352.8516540527344 174.9393615722656 L 395.1529235839844 150.5167388916016 L 437.4541625976562 174.9393615722656 L 437.4541625976562 223.78466796875 L 395.1529235839844 248.2073211669922 Z" stroke="none"/>
    <path d="M 395.1529235839844 247.0526275634766 L 436.4541625976562 223.2073059082031 L 436.4541625976562 175.5167236328125 L 395.1529235839844 151.6714324951172 L 353.8516540527344 175.5167236328125 L 353.8516540527344 223.2073059082031 L 395.1529235839844 247.0526275634766 M 395.1529235839844 249.3620300292969 L 351.8516540527344 224.3620147705078 L 351.8516540527344 174.3620147705078 L 395.1529235839844 149.3620300292969 L 438.4541625976562 174.3620147705078 L 438.4541625976562 224.3620147705078 L 395.1529235839844 249.3620300292969 Z" stroke="none" fill="#fff"/>
  </g>
  <path id="Path_166" data-name="Path 166" d="M437.626,177.623l-42.381,24.469-42.381-24.469" transform="translate(-351.945 -152.091)" fill="#d51030" stroke="#fff" stroke-miterlimit="10" stroke-width="2"/>
  <g id="Path_167" data-name="Path 167" transform="translate(-352.582 -155.583)" fill="#d51030" stroke-miterlimit="10">
    <path d="M 366.4171752929688 229.0104522705078 L 360.8411560058594 225.7999572753906 L 360.8411560058594 219.1756591796875 L 366.4171752929688 222.3861389160156 L 366.4171752929688 229.0104522705078 Z" stroke="none"/>
    <path d="M 365.4171752929688 227.2807769775391 L 365.4171752929688 222.9642791748047 L 361.8411560058594 220.9053344726562 L 361.8411560058594 225.2218170166016 L 365.4171752929688 227.2807769775391 M 367.4171752929688 230.7401275634766 L 359.8411560058594 226.3781127929688 L 359.8411560058594 217.4459838867188 L 367.4171752929688 221.8079986572266 L 367.4171752929688 230.7401275634766 Z" stroke="none" fill="#fff"/>
  </g>
  <g id="Path_168" data-name="Path 168" transform="translate(-353.834 -155.873)" fill="#d51030" stroke-miterlimit="10">
    <path d="M 380.1309509277344 235.8202362060547 L 374.554931640625 232.6097717285156 L 374.554931640625 222.3509216308594 L 380.1309509277344 225.5613861083984 L 380.1309509277344 235.8202362060547 Z" stroke="none"/>
    <path d="M 379.1309509277344 234.0905609130859 L 379.1309509277344 226.1395263671875 L 375.554931640625 224.0805969238281 L 375.554931640625 232.0316162109375 L 379.1309509277344 234.0905609130859 M 381.1309509277344 237.5499114990234 L 373.554931640625 233.1879119873047 L 373.554931640625 220.6212463378906 L 381.1309509277344 224.9832458496094 L 381.1309509277344 237.5499114990234 Z" stroke="none" fill="#fff"/>
  </g>
  <g id="Path_169" data-name="Path 169" transform="translate(-355.113 -155.964)" fill="#d51030" stroke-miterlimit="10">
    <path d="M 394.1309814453125 242.2720336914062 L 388.554931640625 239.0615539550781 L 388.554931640625 223.3509216308594 L 394.1309814453125 226.5614013671875 L 394.1309814453125 242.2720336914062 Z" stroke="none"/>
    <path d="M 393.1309814453125 240.5423736572266 L 393.1309814453125 227.1395416259766 L 389.554931640625 225.0805816650391 L 389.554931640625 238.4834136962891 L 393.1309814453125 240.5423736572266 M 395.1309814453125 244.001708984375 L 387.554931640625 239.6397094726562 L 387.554931640625 221.6212463378906 L 395.1309814453125 225.9832458496094 L 395.1309814453125 244.001708984375 Z" stroke="none" fill="#fff"/>
  </g>
  <g id="Path_170" data-name="Path 170" transform="translate(-358.951 -153.207)" fill="#d51030" stroke-miterlimit="10">
    <path d="M 430.554931640625 226.6349029541016 L 430.554931640625 196.3861236572266 L 436.1309509277344 193.1756591796875 L 436.1309509277344 223.4244232177734 L 430.554931640625 226.6349029541016 Z" stroke="none"/>
    <path d="M 431.554931640625 224.9052276611328 L 435.1309509277344 222.8462829589844 L 435.1309509277344 194.9053344726562 L 431.554931640625 196.9642791748047 L 431.554931640625 224.9052276611328 M 429.554931640625 228.3645782470703 L 429.554931640625 195.8079833984375 L 437.1309509277344 191.4459838867188 L 437.1309509277344 224.0025634765625 L 429.554931640625 228.3645782470703 Z" stroke="none" fill="#fff"/>
  </g>
  <g id="Path_171" data-name="Path 171" transform="translate(-357.699 -154.593)" fill="#d51030" stroke-miterlimit="10">
    <path d="M 416.8411560058594 234.5410919189453 L 416.8411560058594 211.5613861083984 L 422.4171752929688 208.3509216308594 L 422.4171752929688 231.3306121826172 L 416.8411560058594 234.5410919189453 Z" stroke="none"/>
    <path d="M 417.8411560058594 232.8114166259766 L 421.4171752929688 230.7524719238281 L 421.4171752929688 210.0805969238281 L 417.8411560058594 212.1395416259766 L 417.8411560058594 232.8114166259766 M 415.8411560058594 236.2707672119141 L 415.8411560058594 210.9832458496094 L 423.4171752929688 206.6212463378906 L 423.4171752929688 231.9087677001953 L 415.8411560058594 236.2707672119141 Z" stroke="none" fill="#fff"/>
  </g>
  <g id="Path_172" data-name="Path 172" transform="translate(-356.418 -155.598)" fill="#d51030" stroke-miterlimit="10">
    <path d="M 402.8411865234375 241.9065551757812 L 402.8411865234375 222.5613708496094 L 408.4171752929688 219.3509216308594 L 408.4171752929688 238.6960906982422 L 402.8411865234375 241.9065551757812 Z" stroke="none"/>
    <path d="M 403.8411865234375 240.1768798828125 L 407.4171752929688 238.1179351806641 L 407.4171752929688 221.0805969238281 L 403.8411865234375 223.1395111083984 L 403.8411865234375 240.1768798828125 M 401.8411865234375 243.63623046875 L 401.8411865234375 221.9832305908203 L 409.4171752929688 217.6212463378906 L 409.4171752929688 239.2742309570312 L 401.8411865234375 243.63623046875 Z" stroke="none" fill="#fff"/>
  </g>
</svg>
