<svg xmlns="http://www.w3.org/2000/svg" width="575.851" height="576.492" viewBox="0 0 575.851 576.492">
  <g id="Group_941" data-name="Group 941" transform="translate(-672.074 -579)">
    <g id="Group_839" data-name="Group 839" transform="translate(663.774 572.09)" opacity="0.029">
      <g id="Group_823" data-name="Group 823" transform="translate(8.3 30.008)">
        <path id="Path_886" data-name="Path 886" d="M149.591,300.816,26.24,266.168V377.81l205.478,57.585V16.74l-82.127,23.1Z" transform="translate(261.525 117.839)" fill="#0e0708"/>
      </g>
      <g id="Group_940" data-name="Group 940">
        <path id="Path_884" data-name="Path 884" d="M501.543,6.91,296.065,64.5,90.427,6.91,8.3,30.008V560.3l82.287,23.1,205.638-57.585L501.863,583.4l82.287-23.1V30.008ZM419.416,402.627,296.065,368.14,172.714,402.627V187.685l123.351,34.487,123.351-34.487Z" fill="#6d6d6d"/>
        <path id="Path_885" data-name="Path 885" d="M296.065,88.873V200.514L90.427,142.929V561.584L8.3,538.646V8.35Z" transform="translate(0 21.658)" fill="#0e0708"/>
        <path id="Path_887" data-name="Path 887" d="M501.543,6.91l82.287,23.1L296.065,110.531,8.3,30.008,90.427,6.91,296.065,64.5Z" fill="#999"/>
        <path id="Path_888" data-name="Path 888" d="M141.9,29.42,265.251,64.067V110.1L141.9,75.456,18.55,110.1V64.067Z" transform="translate(154.164 338.559)" fill="#999"/>
      </g>
    </g>
  </g>
</svg>
