<svg xmlns="http://www.w3.org/2000/svg" xmlns:xlink="http://www.w3.org/1999/xlink" width="375" height="421.411" viewBox="0 0 375 421.411">
  <defs>
    <filter id="Path_105" x="0" y="0" width="375" height="421.411" filterUnits="userSpaceOnUse">
      <feOffset dy="15" input="SourceAlpha"/>
      <feGaussianBlur stdDeviation="12.5" result="blur"/>
      <feFlood flood-color="#d51030" flood-opacity="0.114"/>
      <feComposite operator="in" in2="blur"/>
      <feComposite in="SourceGraphic"/>
    </filter>
  </defs>
  <g transform="matrix(1, 0, 0, 1, 0, 0)" filter="url(#Path_105)">
    <path id="Path_105-2" data-name="Path 105" d="M581.98,585.152V411.947l-150-86.6-150,86.6V585.152l150,86.6Z" transform="translate(-244.48 -302.84)" fill="#fff"/>
  </g>
  <g id="Group_945" data-name="Group 945" transform="translate(-509.702 -404.989)">
    <line id="Line_123" data-name="Line 123" y1="56.222" x2="95.359" transform="translate(697.199 544.784)" fill="none" stroke="#d51030" stroke-miterlimit="10" stroke-width="10" opacity="0.25"/>
    <line id="Line_124" data-name="Line 124" x2="31.909" y2="18.423" transform="translate(760.65 637.639)" fill="none" stroke="#d51030" stroke-miterlimit="10" stroke-width="10"/>
    <path id="Path_923" data-name="Path 923" d="M591.79,510.42" transform="translate(105.408 196.056)" fill="none" stroke="#d51030" stroke-miterlimit="10" stroke-width="10" opacity="0.25"/>
    <path id="Path_924" data-name="Path 924" d="M591.79,478.721" transform="translate(105.408 121.118)" fill="none" stroke="#d51030" stroke-miterlimit="10" stroke-width="10" opacity="0.25"/>
    <g id="Group_946" data-name="Group 946" transform="translate(547.202 427.488)">
      <path id="Path_926" data-name="Path 926" d="M754.162,501.3V611.41L658.8,666.466,563.444,611.41V501.3L658.8,446.243Z" transform="translate(-508.806 -383.15)" fill="none" stroke="#d51030" stroke-miterlimit="10" stroke-width="10"/>
      <path id="Path_927" data-name="Path 927" d="M563.444,462.355,658.8,518.577v109.8" transform="translate(-508.806 -345.059)" fill="none" stroke="#d51030" stroke-miterlimit="10" stroke-width="10" opacity="0.25"/>
      <circle id="Ellipse_77" data-name="Ellipse 77" cx="16.96" cy="16.96" r="16.96" transform="translate(133.04 51.469)" fill="#fff" stroke="#d51030" stroke-miterlimit="10" stroke-width="10"/>
      <circle id="Ellipse_78" data-name="Ellipse 78" cx="16.96" cy="16.96" r="16.96" transform="translate(40.597 100.337)" fill="#fff" stroke="#d51030" stroke-miterlimit="10" stroke-width="10"/>
      <path id="Path_928" data-name="Path 928" d="M583.228,495.7l28.8-16.63,39.562,22.841" transform="translate(-462.036 -305.55)" fill="none" stroke="#d51030" stroke-miterlimit="10" stroke-width="10"/>
      <circle id="Ellipse_79" data-name="Ellipse 79" cx="16.96" cy="16.96" r="16.96" transform="translate(222.256 100.337)" fill="#fff" stroke="#d51030" stroke-miterlimit="10" stroke-width="10"/>
      <g id="Group_945-2" data-name="Group 945" transform="translate(178.123 164.884)">
        <line id="Line_125" data-name="Line 125" y2="59.831" transform="translate(38.196)" fill="none" stroke="#d51030" stroke-linecap="round" stroke-miterlimit="10" stroke-width="10"/>
        <line id="Line_126" data-name="Line 126" y2="55.056" transform="translate(8.486 17.953)" fill="none" stroke="#d51030" stroke-linecap="round" stroke-miterlimit="10" stroke-width="10"/>
        <line id="Line_127" data-name="Line 127" x1="47.68" y2="27.528" transform="translate(0 7.257)" fill="none" stroke="#d51030" stroke-linecap="round" stroke-miterlimit="10" stroke-width="10"/>
        <line id="Line_128" data-name="Line 128" x1="47.68" y2="27.528" transform="translate(0 38.569)" fill="none" stroke="#d51030" stroke-linecap="round" stroke-miterlimit="10" stroke-width="10"/>
      </g>
      <line id="Line_129" data-name="Line 129" y1="17.183" x2="29.763" transform="translate(54.638 211.39)" fill="none" stroke="#d51030" stroke-miterlimit="10" stroke-width="10"/>
    </g>
    <path id="Path_929" data-name="Path 929" d="M571.845,476.262v49.291L614.532,550.2v-48.22Z" transform="translate(58.257 115.304)" fill="none" stroke="#d51030" stroke-linecap="round" stroke-linejoin="round" stroke-width="10"/>
  </g>
</svg>
