<svg xmlns="http://www.w3.org/2000/svg" xmlns:xlink="http://www.w3.org/1999/xlink"  width="375" height="421.41" viewBox="33.41 0 375 421.41">
  <defs>
    <filter id="Path_180" x="33.41" y="0" width="375" height="421.41" filterUnits="userSpaceOnUse">
      <feOffset dy="15" input="SourceAlpha"/>
      <feGaussianBlur stdDeviation="12.5" result="blur"/>
      <feFlood flood-color="#d51030" flood-opacity="0.114"/>
      <feComposite operator="in" in2="blur"/>
      <feComposite in="SourceGraphic"/>
    </filter>
  </defs>
  <g transform="matrix(1, 0, 0, 1, 0, 0)" filter="url(#Path_180)">
    <path id="Path_180-2" data-name="Path 180" d="M935.172,582.364V409.158l-150-86.6-150,86.6V582.364l150,86.6Z" transform="translate(-563.71 -300.06)" fill="#fff"/>
  </g>
  <g id="Group_171" data-name="Group 171" transform="translate(126.102 85.591)">
    <path id="Path_181" data-name="Path 181" d="M746.774,561.534l95.359-55.056V396.367l-95.359-55.056-95.359,55.056V506.478Z" transform="translate(-651.415 -341.311)" fill="none" stroke="#d51030" stroke-width="10"/>
    <path id="Path_182" data-name="Path 182" d="M651.415,357.423l95.359,55.056,95.359-55.056" transform="translate(-651.415 -303.221)" fill="none" stroke="#d51030" stroke-width="10"/>
    <g transform="matrix(1, 0, 0, 1, -126.1, -85.59)" filter="url(#Line_56)">
      <line id="Line_56-2" data-name="Line 56" y2="110.965" transform="translate(221.46 194.85)" fill="none" stroke="#d51030" stroke-width="10"/>
    </g>
    <path id="Path_183" data-name="Path 183" d="M658.816,371.329v49.189l18.017-3.364,28.12,24.662v-47.9l-21.316,1.555Z" transform="translate(-633.921 -270.348)" fill="none" stroke="#d51030" stroke-width="10"/>
    <path id="Path_184" data-name="Path 184" d="M733.692,371.329v49.189l-18.017-3.364-28.12,24.662v-47.9l21.317,1.555Z" transform="translate(-565.98 -270.348)" fill="none" stroke="#d51030" stroke-width="10"/>
    <path id="Path_185" data-name="Path 185" d="M666.7,378.163l42.6,24.594,6.1-17.285,35.418-12.022L709.324,349.5l-9.311,19.238Z" transform="translate(-615.293 -321.953)" fill="none" stroke="#d51030" stroke-width="10"/>
    <g transform="matrix(1, 0, 0, 1, -126.1, -85.59)" filter="url(#Line_57)">
      <line id="Line_57-2" data-name="Line 57" y1="26.603" x2="46.138" transform="translate(151 209.16)" fill="none" stroke="#d51030" stroke-width="10" opacity="0.25"/>
    </g>
    <g transform="matrix(1, 0, 0, 1, -126.1, -85.59)" filter="url(#Line_58)">
      <line id="Line_58-2" data-name="Line 58" x1="46.138" y1="26.603" transform="translate(247.68 209.16)" fill="none" stroke="#d51030" stroke-width="10" opacity="0.25"/>
    </g>
    <g transform="matrix(1, 0, 0, 1, -126.1, -85.59)" filter="url(#Line_59)">
      <line id="Line_59-2" data-name="Line 59" y2="49.772" transform="translate(219.56 116.62)" fill="none" stroke="#d51030" stroke-width="10" opacity="0.25"/>
    </g>
  </g>
</svg>
