<svg xmlns="http://www.w3.org/2000/svg" width="35.9" height="35.94" viewBox="0 0 35.9 35.94">
  <g id="Group_940" data-name="Group 940" transform="translate(-8.3 -6.91)">
    <path id="Path_884" data-name="Path 884" d="M39.05,6.91,26.24,10.5,13.42,6.91,8.3,8.35V41.41l5.13,1.44,12.82-3.59,12.82,3.59,5.13-1.44V8.35ZM33.93,31.58l-7.69-2.15-7.69,2.15V18.18l7.69,2.15,7.69-2.15Z" fill="#6d6d6d"/>
    <path id="Path_885" data-name="Path 885" d="M26.24,13.37v6.96L13.42,16.74v26.1L8.3,41.41V8.35Z" fill="#0e0708"/>
    <path id="Path_886" data-name="Path 886" d="M33.93,34.45l-7.69-2.16v6.96l12.81,3.59V16.74l-5.12,1.44Z" fill="#0e0708"/>
    <path id="Path_887" data-name="Path 887" d="M39.05,6.91l5.13,1.44L26.24,13.37,8.3,8.35l5.12-1.44L26.24,10.5Z" fill="#999"/>
    <path id="Path_888" data-name="Path 888" d="M26.24,29.42l7.69,2.16v2.87l-7.69-2.16-7.69,2.16V31.58Z" fill="#999"/>
  </g>
</svg>
