<svg xmlns="http://www.w3.org/2000/svg" width="16" height="14" viewBox="0 0 16 14">
  <path id="Path_944" data-name="Path 944" d="M14.5-10a1.447,1.447,0,0,1,1.062.437A1.447,1.447,0,0,1,16-8.5v8A1.447,1.447,0,0,1,15.562.562,1.447,1.447,0,0,1,14.5,1H1.5A1.447,1.447,0,0,1,.437.562,1.447,1.447,0,0,1,0-.5v-8A1.447,1.447,0,0,1,.437-9.562,1.447,1.447,0,0,1,1.5-10H5v-2.25a.723.723,0,0,1,.219-.531A.723.723,0,0,1,5.75-13h4.5a.723.723,0,0,1,.531.219A.723.723,0,0,1,11-12.25V-10ZM6-12v2h4v-2ZM15-.5V-5H10v1.25a.723.723,0,0,1-.219.531A.723.723,0,0,1,9.25-3H6.75a.723.723,0,0,1-.531-.219A.723.723,0,0,1,6-3.75V-5H1V-.5a.487.487,0,0,0,.141.359A.487.487,0,0,0,1.5,0h13a.487.487,0,0,0,.359-.141A.487.487,0,0,0,15-.5ZM7-4H9V-5H7Zm8-2V-8.5a.487.487,0,0,0-.141-.359A.487.487,0,0,0,14.5-9H1.5a.487.487,0,0,0-.359.141A.487.487,0,0,0,1-8.5V-6Z" transform="translate(0 13)" fill="#d6213b"/>
</svg>
