<svg xmlns="http://www.w3.org/2000/svg" width="35.9" height="35.94" viewBox="0 0 35.9 35.94">
  <g id="Group_940" data-name="Group 940" transform="translate(-1531.54 -1887)">
    <path id="Path_892" data-name="Path 892" d="M39.05,6.91,26.24,10.5,13.42,6.91,8.3,8.35V41.41l5.13,1.44,12.82-3.59,12.82,3.59,5.13-1.44V8.35L39.05,6.91ZM33.93,31.58l-7.69-2.15-7.69,2.15V18.18l7.69,2.15,7.69-2.15Z" transform="translate(1523.24 1880.09)" fill="#b7babb"/>
    <path id="Path_893" data-name="Path 893" d="M26.24,13.37v6.96L13.42,16.74v26.1L8.3,41.41V8.35Zm7.69,21.08-7.69-2.16v6.96l12.81,3.59V16.74l-5.12,1.44Z" transform="translate(1523.24 1880.09)" fill="#fff"/>
    <path id="Path_894" data-name="Path 894" d="M39.05,6.91l5.13,1.44L26.24,13.37,8.3,8.35l5.12-1.44L26.24,10.5ZM26.24,29.42l7.69,2.16v2.87l-7.69-2.16-7.69,2.16V31.58Z" transform="translate(1523.24 1880.09)" fill="#999"/>
  </g>
</svg>
