<svg xmlns="http://www.w3.org/2000/svg" width="14" height="16" viewBox="0 0 14 16">
  <path id="Path_951" data-name="Path 951" d="M12.5-12a1.447,1.447,0,0,1,1.062.437A1.447,1.447,0,0,1,14-10.5V.5a1.447,1.447,0,0,1-.437,1.062A1.447,1.447,0,0,1,12.5,2H1.5A1.447,1.447,0,0,1,.437,1.562,1.447,1.447,0,0,1,0,.5v-11a1.447,1.447,0,0,1,.437-1.062A1.447,1.447,0,0,1,1.5-12H3v-1.625a.362.362,0,0,1,.109-.266A.362.362,0,0,1,3.375-14h.25a.362.362,0,0,1,.266.109A.362.362,0,0,1,4-13.625V-12h6v-1.625a.362.362,0,0,1,.109-.266A.362.362,0,0,1,10.375-14h.25a.362.362,0,0,1,.266.109.362.362,0,0,1,.109.266V-12Zm-11,1a.487.487,0,0,0-.359.141A.487.487,0,0,0,1-10.5V-9H13v-1.5a.487.487,0,0,0-.141-.359A.487.487,0,0,0,12.5-11Zm11,12A.481.481,0,0,0,13,.5V-8H1V.5a.481.481,0,0,0,.5.5ZM9.062-4.5a.18.18,0,0,1,.063.125.18.18,0,0,1-.062.125L4.969-.156,3.875,0a.3.3,0,0,1-.281-.094A.3.3,0,0,1,3.5-.375l.156-1.094L7.75-5.562a.18.18,0,0,1,.125-.062A.18.18,0,0,1,8-5.562Zm.687-.437a.18.18,0,0,1-.125.062A.18.18,0,0,1,9.5-4.937L8.437-6a.18.18,0,0,1-.062-.125.18.18,0,0,1,.063-.125l.594-.594A.53.53,0,0,1,9.422-7a.53.53,0,0,1,.391.156l.531.531a.53.53,0,0,1,.156.391.53.53,0,0,1-.156.391Z" transform="translate(0 14)" fill="#d6213b"/>
</svg>
