<svg xmlns="http://www.w3.org/2000/svg" width="16" height="12" viewBox="0 0 16 12">
  <path id="Path_946" data-name="Path 946" d="M14.5-12a1.447,1.447,0,0,1,1.062.437A1.447,1.447,0,0,1,16-10.5v9a1.447,1.447,0,0,1-.437,1.062A1.447,1.447,0,0,1,14.5,0H1.5A1.447,1.447,0,0,1,.437-.437,1.447,1.447,0,0,1,0-1.5v-9a1.447,1.447,0,0,1,.437-1.062A1.447,1.447,0,0,1,1.5-12Zm-13,1a.487.487,0,0,0-.359.141A.487.487,0,0,0,1-10.5v1.281q1.094.937,4.719,3.812L6-5.156a7.638,7.638,0,0,0,1,.75A1.9,1.9,0,0,0,8-4a1.9,1.9,0,0,0,1-.406,9.741,9.741,0,0,0,.969-.75l.312-.25Q13.906-8.281,15-9.219V-10.5a.487.487,0,0,0-.141-.359A.487.487,0,0,0,14.5-11Zm13,10a.487.487,0,0,0,.359-.141A.487.487,0,0,0,15-1.5V-7.906q-1.094.875-4.094,3.281l-.312.25a13.032,13.032,0,0,1-1.187.906A2.8,2.8,0,0,1,8-3a2.8,2.8,0,0,1-1.406-.469,9.021,9.021,0,0,1-1.187-.906l-.312-.25Q2.094-7.031,1-7.906V-1.5a.487.487,0,0,0,.141.359A.487.487,0,0,0,1.5-1Z" transform="translate(0 12)" fill="#d6213b"/>
</svg>
