<svg xmlns="http://www.w3.org/2000/svg" xmlns:xlink="http://www.w3.org/1999/xlink" width="135" height="144.282" viewBox="0 0 135 144.282">
  <defs>
    <filter id="Path_75" x="0" y="0" width="135" height="144.282" filterUnits="userSpaceOnUse">
      <feOffset dy="15" input="SourceAlpha"/>
      <feGaussianBlur stdDeviation="12.5" result="blur"/>
      <feFlood flood-color="#d51030" flood-opacity="0.114"/>
      <feComposite operator="in" in2="blur"/>
      <feComposite in="SourceGraphic"/>
    </filter>
  </defs>
  <g id="Group_53" data-name="Group 53" transform="translate(37.5 22.5)">
    <g id="Group_45" data-name="Group 45" transform="translate(0)">
      <g id="Group_29" data-name="Group 29" transform="translate(0 0)">
        <g transform="matrix(1, 0, 0, 1, -37.5, -22.5)" filter="url(#Path_75)">
          <path id="Path_75-2" data-name="Path 75" d="M257.392,220.433V185.791l-30-17.321-30,17.321v34.641l30,17.321Z" transform="translate(-159.89 -145.97)" fill="#d51030"/>
        </g>
        <g id="Group_56" data-name="Group 56" transform="translate(10.927 12.619)">
          <path id="Path_76" data-name="Path 76" d="M251.776,220.26V198.237L232.7,187.226l-19.072,11.011V220.26L232.7,231.271Z" transform="translate(-213.633 -187.226)" fill="none" stroke="#fff" stroke-linecap="round" stroke-miterlimit="10" stroke-width="2"/>
          <path id="Path_77" data-name="Path 77" d="M213.633,203.592" transform="translate(-213.633 -192.581)" fill="none" stroke="#fff" stroke-linecap="round" stroke-miterlimit="10" stroke-width="2"/>
          <path id="Path_78" data-name="Path 78" d="M232.7,214.6l-7.857-4.388v6.729l-1.924-1.194a7.649,7.649,0,0,1-3.619-6.5v-2.3l-5.672-3.359" transform="translate(-213.633 -192.581)" fill="none" stroke="#fff" stroke-linecap="round" stroke-miterlimit="10" stroke-width="2"/>
          <path id="Path_79" data-name="Path 79" d="M241.979,214.6l7.2-4.335-5.766-3.468,2.014-1.034a7.651,7.651,0,0,1,7.437.25l1.97,1.184,6.214-3.608" transform="translate(-222.907 -192.581)" fill="none" stroke="#fff" stroke-linecap="round" stroke-miterlimit="10" stroke-width="2"/>
          <path id="Path_80" data-name="Path 80" d="M241.976,219.958l-.007,8.447,5.964-3.565-.071,2.263a7.65,7.65,0,0,1-3.822,6.386l-1.913,1.1-.151,7.387" transform="translate(-222.904 -197.936)" fill="none" stroke="#fff" stroke-linecap="round" stroke-miterlimit="10" stroke-width="2" opacity="0.25"/>
          <line id="Line_22" data-name="Line 22" y2="10.636" transform="translate(31.586 26.063)" fill="none" stroke="#fff" stroke-linecap="round" stroke-miterlimit="10" stroke-width="2" opacity="0.25"/>
        </g>
      </g>
    </g>
  </g>
</svg>
