<svg xmlns="http://www.w3.org/2000/svg" width="50" height="50" viewBox="0 0 50 50">
  <g id="Group_940" data-name="Group 940" transform="translate(-704 -25)">
    <rect id="Rectangle_47" data-name="Rectangle 47" width="50" height="50" rx="2" transform="translate(704 25)" fill="#fff"/>
    <g id="Path_135" data-name="Path 135" transform="translate(793.823 -78.65)" fill="none">
      <path d="M-54,134.9V122.4l-10.825-6.25-10.825,6.25v12.5l10.825,6.25Z" stroke="none"/>
      <path d="M -64.82339477539063 139.9959259033203 L -54.99807357788086 134.3232727050781 L -54.99807357788086 122.9779968261719 L -64.82339477539063 117.3053512573242 L -74.64871215820313 122.9779968261719 L -74.64871215820313 134.3232727050781 L -64.82339477539063 139.9959259033203 M -64.82339477539063 141.150634765625 L -75.64871215820313 134.900634765625 L -75.64871215820313 122.4006423950195 L -64.82339477539063 116.1506423950195 L -53.99807357788086 122.4006423950195 L -53.99807357788086 134.900634765625 L -64.82339477539063 141.150634765625 Z" stroke="none" fill="#d51030"/>
    </g>
    <path id="Path_889" data-name="Path 889" d="M1.645,0H0V6.679H6.645v-1.9" transform="translate(725.669 46.66)" fill="none" stroke="#d51030" stroke-width="1"/>
    <path id="Path_890" data-name="Path 890" d="M3.261,0H0V3.236" transform="translate(732.331 46.661) rotate(90)" fill="none" stroke="#d51030" stroke-width="1"/>
  </g>
</svg>
