<svg xmlns="http://www.w3.org/2000/svg" width="14" height="16" viewBox="0 0 14 16">
  <path id="Path_945" data-name="Path 945" d="M9.812-5a4.1,4.1,0,0,1,2.094.562,4.153,4.153,0,0,1,1.531,1.531A4.1,4.1,0,0,1,14-.812V.5a1.447,1.447,0,0,1-.437,1.062A1.447,1.447,0,0,1,12.5,2H1.5A1.447,1.447,0,0,1,.437,1.562,1.447,1.447,0,0,1,0,.5V-.812A4.1,4.1,0,0,1,.562-2.906,4.153,4.153,0,0,1,2.094-4.437,4.1,4.1,0,0,1,4.187-5a3.549,3.549,0,0,1,1.062.219q.437.125.719.187A5.268,5.268,0,0,0,7-4.5a5.268,5.268,0,0,0,1.031-.094q.281-.062.719-.187A3.549,3.549,0,0,1,9.812-5ZM13,.5V-.812a3.069,3.069,0,0,0-.937-2.25A3.069,3.069,0,0,0,9.812-4a3.13,3.13,0,0,0-.781.156A6.6,6.6,0,0,1,7-3.5a6.6,6.6,0,0,1-2.031-.344A3.13,3.13,0,0,0,4.187-4a3.069,3.069,0,0,0-2.25.937A3.069,3.069,0,0,0,1-.812V.5a.481.481,0,0,0,.5.5h11A.481.481,0,0,0,13,.5ZM7-6a3.966,3.966,0,0,1-2.016-.531A3.891,3.891,0,0,1,3.531-7.984,3.966,3.966,0,0,1,3-10a3.966,3.966,0,0,1,.531-2.016,3.891,3.891,0,0,1,1.453-1.453A3.966,3.966,0,0,1,7-14a3.966,3.966,0,0,1,2.016.531,3.891,3.891,0,0,1,1.453,1.453A3.966,3.966,0,0,1,11-10a3.966,3.966,0,0,1-.531,2.016A3.891,3.891,0,0,1,9.016-6.531,3.966,3.966,0,0,1,7-6Zm0-7a2.893,2.893,0,0,0-2.125.875A2.893,2.893,0,0,0,4-10a2.893,2.893,0,0,0,.875,2.125A2.893,2.893,0,0,0,7-7a2.893,2.893,0,0,0,2.125-.875A2.893,2.893,0,0,0,10-10a2.893,2.893,0,0,0-.875-2.125A2.893,2.893,0,0,0,7-13Z" transform="translate(0 14)" fill="#d6213b"/>
</svg>
