<svg xmlns="http://www.w3.org/2000/svg" width="60" height="69.282" viewBox="0 0 60 69.282">
  <path id="Path_86" data-name="Path 86" d="M615.32,218.919V184.278l-30-17.32-30,17.32v34.641l30,17.32Z" transform="translate(-555.32 -166.958)" fill="#fff"/>
  <g id="Group_31" data-name="Group 31" transform="translate(10.928 11.619)">
    <path id="Path_87" data-name="Path 87" d="M576.588,221.642l-5.024-2.9V196.724l19.072-11.011,19.072,11.011v22.022l-19.072,11.011-5.462-3.289V213.454" transform="translate(-571.563 -185.713)" fill="none" stroke="#d51030" strokeMiterlimit="10" stroke-width="2"/>
    <path id="Path_88" data-name="Path 88" d="M571.563,201.825l19.072,11.011,19.072-11.011" transform="translate(-571.563 -190.985)" fill="none" stroke="#d51030" strokeMiterlimit="10" stroke-width="2"/>
    <line id="Line_24" data-name="Line 24" y2="22.193" transform="translate(19.072 21.852)" fill="none" stroke="#d51030" strokeMiterlimit="10" stroke-width="2"/>
    <path id="Path_89" data-name="Path 89" d="M578.326,235.983l.474.273V230.38l4.732,2.809v5.876" transform="translate(-573.776 -200.327)" fill="none" stroke="#d51030" strokeLinecap="round" strokeMiterlimit="10" stroke-width="2"/>
    <path id="Path_90" data-name="Path 90" d="M589.49,226.643l-4.732-2.809v-5.389l4.732,2.809Z" transform="translate(-575.88 -196.422)" fill="none" stroke="#d51030" strokeLinejoin="round" stroke-width="2"/>
    <line id="Line_25" data-name="Line 25" y1="1.796" x2="4.416" transform="translate(4.461 27.412)" fill="none" stroke="#d51030" strokeMiterlimit="10" stroke-width="2"/>
    <line id="Line_26" data-name="Line 26" y2="10.312" transform="translate(28.872 22.107)" fill="none" stroke="#d51030" strokeMiterlimit="10" stroke-width="2" opacity="0.25"/>
    <line id="Line_27" data-name="Line 27" y1="4.898" x2="8.575" transform="translate(24.902 24.855)" fill="none" stroke="#d51030" strokeMiterlimit="10" stroke-width="2" opacity="0.25"/>
    <line id="Line_28" data-name="Line 28" y1="1.796" x2="4.416" transform="translate(9.756 31.047)" fill="none" stroke="#d51030" strokeMiterlimit="10" stroke-width="2"/>
    <path id="Path_91" data-name="Path 91" d="M616.607,225.537l-8.3,4.613v-10.4l8.3-4.613Z" transform="translate(-583.586 -195.342)" fill="none" stroke="#d51030" strokeMiterlimit="10" stroke-width="2"/>
  </g>
</svg>



