

<svg xmlns="http://www.w3.org/2000/svg" width="60" height="69.282" viewBox="0 0 60 69.282">
  <path id="Path_105" data-name="Path 105" d="M341.981,377.306V342.665l-30-17.321-30,17.321v34.641l30,17.321Z" transform="translate(-281.98 -325.344)" fill="#fff"/>
  <g id="Group_44" data-name="Group 44" transform="translate(7.113 9.254)">
    <path id="Path_82" data-name="Path 82" d="M336.366,355.11v22.023l-6.289,3.639v-6.9a2.243,2.243,0,0,0-3.433-1.9h0a4.144,4.144,0,0,0-1.946,3.513v8.649l-7.4,4.009-19.072-11.011V355.11L317.294,344.1" transform="translate(-294.408 -340.735)" fill="#fff" stroke="#d51030" strokeMiterlimit="10" stroke-width="2"/>
    <path id="Path_83" data-name="Path 83" d="M298.237,360.212l19.072,11.011,19.072-11.011" transform="translate(-294.413 -346.007)" fill="#fff" stroke="#d51030" strokeMiterlimit="10" stroke-width="2"/>
    <line id="Line_23" data-name="Line 23" y2="29.091" transform="translate(22.886)" fill="none" stroke="#d51030" strokeMiterlimit="10" stroke-width="2"/>
    <path id="Path_84" data-name="Path 84" d="M292.554,357.313,315.44,344.1l22.886,13.213" transform="translate(-292.554 -340.735)" fill="#fff" stroke="#d51030" strokeMiterlimit="10" stroke-width="2"/>
    <path id="Path_85" data-name="Path 85" d="M311.124,379.123h0a2.39,2.39,0,0,0-3.551,2.089v3.518l6.052,3.364v-4.72A4.864,4.864,0,0,0,311.124,379.123Z" transform="translate(-297.468 -352.095)" fill="#fff" stroke="#d51030" strokeMiterlimit="10" stroke-width="2" opacity="0.25"/>
  </g>
</svg>
