<svg xmlns="http://www.w3.org/2000/svg" xmlns:xlink="http://www.w3.org/1999/xlink" width="375" height="421.411" viewBox="0 0 375 421.411">
  <defs>
    <filter id="Path_86" x="0" y="0" width="375" height="421.411" filterUnits="userSpaceOnUse">
      <feOffset dy="15" input="SourceAlpha"/>
      <feGaussianBlur stdDeviation="12.5" result="blur"/>
      <feFlood flood-color="#d51030" flood-opacity="0.114"/>
      <feComposite operator="in" in2="blur"/>
      <feComposite in="SourceGraphic"/>
    </filter>
  </defs>
  <g id="Group_845" data-name="Group 845" transform="translate(37.5 22.5)">
    <g transform="matrix(1, 0, 0, 1, -37.5, -22.5)" filter="url(#Path_86)">
      <path id="Path_86-2" data-name="Path 86" d="M855.32,426.766V253.56l-150-86.6-150,86.6V426.766l150,86.6Z" transform="translate(-517.82 -144.46)" fill="#fff"/>
    </g>
    <g id="Group_31" data-name="Group 31" transform="translate(54.642 63.094)">
      <path id="Path_87" data-name="Path 87" d="M596.685,365.357,571.563,350.88V240.768l95.359-55.056,95.359,55.056V350.88l-95.359,55.056-27.311-16.444V324.42" transform="translate(-571.563 -185.713)" fill="none" stroke="#d51030" stroke-miterlimit="10" stroke-width="10"/>
      <path id="Path_88" data-name="Path 88" d="M571.563,201.825l95.359,55.056,95.359-55.056" transform="translate(-571.563 -147.622)" fill="none" stroke="#d51030" stroke-miterlimit="10" stroke-width="10"/>
      <line id="Line_24" data-name="Line 24" y2="110.965" transform="translate(95.359 109.258)" fill="none" stroke="#d51030" stroke-miterlimit="10" stroke-width="10"/>
      <path id="Path_89" data-name="Path 89" d="M578.326,258.4l2.371,1.366V230.38l23.66,14.043v29.382" transform="translate(-555.575 -80.117)" fill="none" stroke="#d51030" stroke-linecap="round" stroke-miterlimit="10" stroke-width="10"/>
      <path id="Path_90" data-name="Path 90" d="M608.418,259.435l-23.66-14.043V218.445l23.66,14.043Z" transform="translate(-540.37 -108.333)" fill="none" stroke="#d51030" stroke-linejoin="round" stroke-width="10"/>
      <line id="Line_25" data-name="Line 25" y1="8.98" x2="22.08" transform="translate(22.307 137.059)" fill="none" stroke="#d51030" stroke-miterlimit="10" stroke-width="10"/>
      <line id="Line_26" data-name="Line 26" y2="51.56" transform="translate(144.361 110.533)" fill="none" stroke="#d51030" stroke-miterlimit="10" stroke-width="10" opacity="0.25"/>
      <line id="Line_27" data-name="Line 27" y1="24.489" x2="42.876" transform="translate(124.511 124.277)" fill="none" stroke="#d51030" stroke-miterlimit="10" stroke-width="10" opacity="0.25"/>
      <line id="Line_28" data-name="Line 28" y1="8.98" x2="22.08" transform="translate(48.782 155.236)" fill="none" stroke="#d51030" stroke-miterlimit="10" stroke-width="10"/>
      <path id="Path_91" data-name="Path 91" d="M649.8,267.119l-41.491,23.064V238.206L649.8,215.142Z" transform="translate(-484.694 -116.141)" fill="none" stroke="#d51030" stroke-miterlimit="10" stroke-width="10"/>
    </g>
  </g>
</svg>
