<svg xmlns="http://www.w3.org/2000/svg" xmlns:xlink="http://www.w3.org/1999/xlink" width="87" height="87" viewBox="0 0 87 87">
  <defs>
    <filter id="Path_902" x="0" y="0" width="87" height="87" filterUnits="userSpaceOnUse">
      <feOffset dy="6" input="SourceAlpha"/>
      <feGaussianBlur stdDeviation="11" result="blur"/>
      <feFlood flood-color="#fff" flood-opacity="0.404"/>
      <feComposite operator="in" in2="blur"/>
      <feComposite in="SourceGraphic"/>
    </filter>
  </defs>
  <g transform="matrix(1, 0, 0, 1, 0, 0)" filter="url(#Path_902)">
    <path id="Path_902-2" data-name="Path 902" d="M0-14.391a5.245,5.245,0,0,1,2.7.727A5.406,5.406,0,0,1,4.664-11.7,5.245,5.245,0,0,1,5.391-9a5.245,5.245,0,0,1-.727,2.7A5.406,5.406,0,0,1,2.7-4.336,5.245,5.245,0,0,1,0-3.609a5.245,5.245,0,0,1-2.7-.727A5.406,5.406,0,0,1-4.664-6.3,5.245,5.245,0,0,1-5.391-9a5.245,5.245,0,0,1,.727-2.7A5.406,5.406,0,0,1-2.7-13.664,5.245,5.245,0,0,1,0-14.391ZM0-5.484A3.386,3.386,0,0,0,2.484-6.516,3.386,3.386,0,0,0,3.516-9a3.386,3.386,0,0,0-1.031-2.484A3.386,3.386,0,0,0,0-12.516a3.386,3.386,0,0,0-2.484,1.031A3.386,3.386,0,0,0-3.516-9,3.386,3.386,0,0,0-2.484-6.516,3.386,3.386,0,0,0,0-5.484Zm6.891-9.141a1.46,1.46,0,0,1-.4.891,1.142,1.142,0,0,1-.867.375,1.217,1.217,0,0,1-.891-.375,1.217,1.217,0,0,1-.375-.891,1.217,1.217,0,0,1,.375-.891,1.217,1.217,0,0,1,.891-.375,1.217,1.217,0,0,1,.891.375A1.217,1.217,0,0,1,6.891-14.625Zm3.562,1.266Q10.5-12.047,10.5-9t-.07,4.383a8.84,8.84,0,0,1-.4,2.32A5.464,5.464,0,0,1,8.742-.258,5.464,5.464,0,0,1,6.7,1.031a8.84,8.84,0,0,1-2.32.4Q3.047,1.5,0,1.5t-4.383-.07A7.654,7.654,0,0,1-6.7.984,5,5,0,0,1-8.742-.258,5.464,5.464,0,0,1-10.031-2.3a8.84,8.84,0,0,1-.4-2.32Q-10.5-5.953-10.5-9t.07-4.383a8.84,8.84,0,0,1,.4-2.32,5.464,5.464,0,0,1,1.289-2.039A5.464,5.464,0,0,1-6.7-19.031a8.84,8.84,0,0,1,2.32-.4Q-3.047-19.5,0-19.5t4.383.07a8.84,8.84,0,0,1,2.32.4,5.464,5.464,0,0,1,2.039,1.289A5.464,5.464,0,0,1,10.031-15.7,9.536,9.536,0,0,1,10.453-13.359ZM8.2-2.812a9.87,9.87,0,0,0,.375-2.531q.047-1.031.047-2.906v-1.5q0-1.922-.047-2.906A9.406,9.406,0,0,0,8.2-15.187,3.383,3.383,0,0,0,6.187-17.2a9.406,9.406,0,0,0-2.531-.375Q2.625-17.625.75-17.625H-.75q-1.875,0-2.906.047a9.87,9.87,0,0,0-2.531.375A3.383,3.383,0,0,0-8.2-15.187a9.406,9.406,0,0,0-.375,2.531q-.047,1.031-.047,2.906v1.5q0,1.875.047,2.906A9.87,9.87,0,0,0-8.2-2.812,3.554,3.554,0,0,0-6.188-.8a9.87,9.87,0,0,0,2.531.375q1.031.047,2.906.047H.75q1.922,0,2.906-.047A9.406,9.406,0,0,0,6.187-.8,3.554,3.554,0,0,0,8.2-2.812Z" transform="translate(43.5 46.5)" fill="#fff"/>
  </g>
</svg>
