<svg xmlns="http://www.w3.org/2000/svg" xmlns:xlink="http://www.w3.org/1999/xlink" width="87" height="87" viewBox="0 0 87 87">
  <defs>
    <filter id="Path_901" x="0" y="0" width="87" height="87" filterUnits="userSpaceOnUse">
      <feOffset dy="6" input="SourceAlpha"/>
      <feGaussianBlur stdDeviation="11" result="blur"/>
      <feFlood flood-color="#fff" flood-opacity="0.404"/>
      <feComposite operator="in" in2="blur"/>
      <feComposite in="SourceGraphic"/>
    </filter>
  </defs>
  <g transform="matrix(1, 0, 0, 1, 0, 0)" filter="url(#Path_901)">
    <path id="Path_901-2" data-name="Path 901" d="M-5.813,0V-14.016h-4.359V0ZM-7.969-15.937a2.433,2.433,0,0,0,1.781-.75,2.433,2.433,0,0,0,.75-1.781,2.433,2.433,0,0,0-.75-1.781A2.433,2.433,0,0,0-7.969-21a2.433,2.433,0,0,0-1.781.75,2.433,2.433,0,0,0-.75,1.781,2.433,2.433,0,0,0,.75,1.781A2.433,2.433,0,0,0-7.969-15.937ZM10.5,0V-7.687a9.48,9.48,0,0,0-.937-4.781Q8.344-14.391,5.3-14.391a4.621,4.621,0,0,0-2.625.75,3.746,3.746,0,0,0-1.5,1.547H1.125v-1.922H-3.047V0H1.266V-6.937a5.233,5.233,0,0,1,.469-2.484,2.2,2.2,0,0,1,2.109-1.125A1.973,1.973,0,0,1,5.859-9.281a7.572,7.572,0,0,1,.281,2.437V0Z" transform="translate(43.5 48)" fill="#fff"/>
  </g>
</svg>
