<svg xmlns="http://www.w3.org/2000/svg" width="12" height="16" viewBox="0 0 12 16">
  <path id="Path_948" data-name="Path 948" d="M6-11a2.893,2.893,0,0,1,2.125.875A2.893,2.893,0,0,1,9-8a2.893,2.893,0,0,1-.875,2.125A2.893,2.893,0,0,1,6-5a2.893,2.893,0,0,1-2.125-.875A2.893,2.893,0,0,1,3-8a2.893,2.893,0,0,1,.875-2.125A2.893,2.893,0,0,1,6-11ZM6-6a1.922,1.922,0,0,0,1.406-.594A1.922,1.922,0,0,0,8-8a1.922,1.922,0,0,0-.594-1.406A1.922,1.922,0,0,0,6-10a1.922,1.922,0,0,0-1.406.594A1.922,1.922,0,0,0,4-8a1.922,1.922,0,0,0,.594,1.406A1.922,1.922,0,0,0,6-6Zm0-8a5.791,5.791,0,0,1,3,.812A6.115,6.115,0,0,1,11.187-11,5.791,5.791,0,0,1,12-8a5.689,5.689,0,0,1-.25,1.766,8.8,8.8,0,0,1-.969,1.891q-.5.781-2.062,3.031l-2.094,3A.717.717,0,0,1,6,2a.717.717,0,0,1-.625-.312l-2.094-3Q1.719-3.562,1.219-4.344A8.8,8.8,0,0,1,.25-6.234,5.689,5.689,0,0,1,0-8a5.791,5.791,0,0,1,.812-3A6.115,6.115,0,0,1,3-13.187,5.791,5.791,0,0,1,6-14ZM6,.812,7.937-1.969q1.5-2.156,1.969-2.844a9.151,9.151,0,0,0,.875-1.7A4.592,4.592,0,0,0,11-8a4.937,4.937,0,0,0-.375-1.906,4.969,4.969,0,0,0-1.094-1.625,4.969,4.969,0,0,0-1.625-1.094A4.937,4.937,0,0,0,6-13a4.937,4.937,0,0,0-1.906.375,4.969,4.969,0,0,0-1.625,1.094A4.969,4.969,0,0,0,1.375-9.906,4.937,4.937,0,0,0,1-8a4.592,4.592,0,0,0,.219,1.484,9.151,9.151,0,0,0,.875,1.7q.469.687,1.969,2.844Q5.25-.281,6,.812Z" transform="translate(0 14)" fill="#d6213b"/>
</svg>
