<svg xmlns="http://www.w3.org/2000/svg" width="53.462" height="61.731" viewBox="0 0 53.462 61.731"><g id="Group_780" data-name="Group 780" transform="translate(-1304.787 -9411.635)"><path id="Path_104" data-name="Path 104" d="M413.954,308.352v-30l-25.981-15-25.981,15v30l25.981,15Z" transform="translate(943.545 9149.148)" fill="none" stroke="#fff" stroke-miterlimit="10" stroke-width="1.5"></path><path id="Path_295" data-name="Path 295" d="M20.016-17.391a1.158,1.158,0,0,1,.7.451A1.25,1.25,0,0,1,21-16.16a18.426,18.426,0,0,1-2.584,9.516A18.452,18.452,0,0,1,11.689.082,18.434,18.434,0,0,1,2.215,2.625a1.25,1.25,0,0,1-.779-.287,1.158,1.158,0,0,1-.451-.7L.041-2.5a1.174,1.174,0,0,1,.082-.861,1.312,1.312,0,0,1,.656-.615l4.43-1.887a1.306,1.306,0,0,1,.82-.062,1.341,1.341,0,0,1,.7.431l1.8,2.215a14.581,14.581,0,0,0,3.814-2.748,14.581,14.581,0,0,0,2.748-3.814l-2.215-1.8a1.341,1.341,0,0,1-.431-.7,1.306,1.306,0,0,1,.062-.82L14.4-17.6a1.312,1.312,0,0,1,.615-.656,1.174,1.174,0,0,1,.861-.082ZM2.256,1.312a17.065,17.065,0,0,0,8.777-2.379,17.263,17.263,0,0,0,6.275-6.275,16.923,16.923,0,0,0,2.379-8.777l-4.1-.943L13.7-12.633l2.994,2.42a17.608,17.608,0,0,1-3.4,5.127,17.608,17.608,0,0,1-5.127,3.4L5.742-4.676,1.312-2.789Z" transform="translate(1321.5 9451)" fill="#fff"></path></g></svg>