<svg xmlns="http://www.w3.org/2000/svg" width="16.004" height="16.004" viewBox="0 0 16.004 16.004">
  <path id="Path_947" data-name="Path 947" d="M15.25-13.25a.882.882,0,0,1,.531.344.952.952,0,0,1,.219.594,14.039,14.039,0,0,1-1.969,7.25A14.059,14.059,0,0,1,8.906.062,14.045,14.045,0,0,1,1.687,2a.952.952,0,0,1-.594-.219A.882.882,0,0,1,.75,1.25L.031-1.906a.894.894,0,0,1,.062-.656,1,1,0,0,1,.5-.469L3.969-4.469a1,1,0,0,1,.625-.047,1.022,1.022,0,0,1,.531.328L6.5-2.5A11.109,11.109,0,0,0,9.406-4.594,11.109,11.109,0,0,0,11.5-7.5L9.812-8.875a1.022,1.022,0,0,1-.328-.531,1,1,0,0,1,.047-.625l1.437-3.375a1,1,0,0,1,.469-.5.894.894,0,0,1,.656-.062ZM1.719,1A13,13,0,0,0,8.406-.812a13.153,13.153,0,0,0,4.781-4.781A12.893,12.893,0,0,0,15-12.281L11.875-13,10.437-9.625l2.281,1.844a13.415,13.415,0,0,1-2.594,3.906A13.415,13.415,0,0,1,6.219-1.281L4.375-3.562,1-2.125Z" transform="translate(0.004 14.004)" fill="#d6213b"/>
</svg>
