<svg xmlns="http://www.w3.org/2000/svg" width="21.651" height="25" viewBox="0 0 21.651 25">
  <g id="Path_135" data-name="Path 135" transform="translate(75.649 -116.151)" fill="none">
    <path d="M-54,134.9V122.4l-10.825-6.25-10.825,6.25v12.5l10.825,6.25Z" stroke="none"/>
    <path d="M -64.82339477539062 139.9959259033203 L -54.99807357788086 134.3232727050781 L -54.99807357788086 122.9779968261719 L -64.82339477539062 117.3053512573242 L -74.64871215820312 122.9779968261719 L -74.64871215820312 134.3232727050781 L -64.82339477539062 139.9959259033203 M -64.82339477539062 141.150634765625 L -75.64871215820312 134.900634765625 L -75.64871215820312 122.4006423950195 L -64.82339477539062 116.1506423950195 L -53.99807357788086 122.4006423950195 L -53.99807357788086 134.900634765625 L -64.82339477539062 141.150634765625 Z" stroke="none" fill="#fff"/>
  </g>
  <path id="Path_896" data-name="Path 896" d="M8.385-7.471H8.367a.742.742,0,0,1,.457.272A.805.805,0,0,1,9-6.68,7.589,7.589,0,0,1,7.928-2.742,7.612,7.612,0,0,1,5.133.053,7.682,7.682,0,0,1,1.178,1.125a.78.78,0,0,1-.5-.176A.742.742,0,0,1,.4.492L.018-1.16a.767.767,0,0,1,.062-.545.733.733,0,0,1,.413-.369l1.775-.773a.761.761,0,0,1,.51-.035.89.89,0,0,1,.439.264l.562.7a5.254,5.254,0,0,0,2.2-2.18l-.7-.562A.793.793,0,0,1,5-5.1a.8.8,0,0,1,.044-.51L5.8-7.383A.816.816,0,0,1,6.179-7.8a.74.74,0,0,1,.536-.062ZM1.213.281a6.791,6.791,0,0,0,3.5-.949,7.074,7.074,0,0,0,2.5-2.5,6.791,6.791,0,0,0,.949-3.5l-1.6-.369-.738,1.74,1.2.967A6.986,6.986,0,0,1,5.634-2.25,7.492,7.492,0,0,1,3.551-.861l-.967-1.2-1.74.738Z" transform="translate(6.26 16.211)" fill="#fff"/>
</svg>
