<?xml version="1.0" encoding="UTF-8"?>
<svg xmlns="http://www.w3.org/2000/svg" width="23.625" height="21" viewBox="0 0 23.625 21">
  <path id="Path_958" data-name="Path 958" d="M16.283-9.187a.51.51,0,0,1-.369-.164.51.51,0,0,1-.164-.369v-1.559a.51.51,0,0,1,.164-.369.51.51,0,0,1,.369-.164h1.559a.51.51,0,0,1,.369.164.51.51,0,0,1,.164.369v1.559a.51.51,0,0,1-.164.369.51.51,0,0,1-.369.164Zm-5.25-3.937a.51.51,0,0,1-.369-.164.51.51,0,0,1-.164-.369v-1.559a.51.51,0,0,1,.164-.369.51.51,0,0,1,.369-.164h1.559a.51.51,0,0,1,.369.164.51.51,0,0,1,.164.369v1.559a.51.51,0,0,1-.164.369.51.51,0,0,1-.369.164Zm5.25,0a.51.51,0,0,1-.369-.164.51.51,0,0,1-.164-.369v-1.559a.51.51,0,0,1,.164-.369.51.51,0,0,1,.369-.164h1.559a.51.51,0,0,1,.369.164.51.51,0,0,1,.164.369v1.559a.51.51,0,0,1-.164.369.51.51,0,0,1-.369.164Zm-10.5,0a.51.51,0,0,1-.369-.164.51.51,0,0,1-.164-.369v-1.559a.51.51,0,0,1,.164-.369.51.51,0,0,1,.369-.164H7.342a.51.51,0,0,1,.369.164.51.51,0,0,1,.164.369v1.559a.51.51,0,0,1-.164.369.51.51,0,0,1-.369.164Zm5.25,3.938a.51.51,0,0,1-.369-.164.51.51,0,0,1-.164-.369v-1.559a.51.51,0,0,1,.164-.369.51.51,0,0,1,.369-.164h1.559a.51.51,0,0,1,.369.164.51.51,0,0,1,.164.369v1.559a.51.51,0,0,1-.164.369.51.51,0,0,1-.369.164ZM23.3-17.062h-.984V1.313H23.3a.314.314,0,0,1,.226.1.314.314,0,0,1,.1.226V2.3a.353.353,0,0,1-.328.328H.328a.314.314,0,0,1-.226-.1A.314.314,0,0,1,0,2.3V1.641a.314.314,0,0,1,.1-.226.314.314,0,0,1,.226-.1h.984V-17.062H.328a.314.314,0,0,1-.226-.1.314.314,0,0,1-.1-.226v-.656a.314.314,0,0,1,.1-.226.314.314,0,0,1,.226-.1H23.3a.314.314,0,0,1,.226.1.314.314,0,0,1,.1.226v.656a.314.314,0,0,1-.1.226A.314.314,0,0,1,23.3-17.062ZM13.125,1.313V-1.969a.639.639,0,0,0-.185-.472.639.639,0,0,0-.472-.185H11.156a.639.639,0,0,0-.472.185.639.639,0,0,0-.185.472V1.313Zm7.875,0V-17.062H2.625V1.313H9.188V-1.969a1.9,1.9,0,0,1,.574-1.395,1.9,1.9,0,0,1,1.395-.574h1.313a1.9,1.9,0,0,1,1.395.574,1.9,1.9,0,0,1,.574,1.395V1.313ZM5.783-9.187a.51.51,0,0,1-.369-.164.51.51,0,0,1-.164-.369v-1.559a.51.51,0,0,1,.164-.369.51.51,0,0,1,.369-.164H7.342a.51.51,0,0,1,.369.164.51.51,0,0,1,.164.369v1.559a.51.51,0,0,1-.164.369.51.51,0,0,1-.369.164ZM6.85-2.707a.576.576,0,0,1-.226-.144.262.262,0,0,1-.062-.267A5.234,5.234,0,0,1,8.449-6.07,5.215,5.215,0,0,1,11.813-7.26,5.215,5.215,0,0,1,15.176-6.07a5.234,5.234,0,0,1,1.887,2.953A.262.262,0,0,1,17-2.851a.576.576,0,0,1-.226.144l-.656.082a.513.513,0,0,1-.267-.062.2.2,0,0,1-.1-.185,3.894,3.894,0,0,0-1.436-2.215,3.97,3.97,0,0,0-2.5-.861,3.97,3.97,0,0,0-2.5.861A3.894,3.894,0,0,0,7.875-2.871a.2.2,0,0,1-.1.185.513.513,0,0,1-.267.062Z" transform="translate(0 18.375)" fill="#fff"></path>
</svg>
