<?xml version="1.0" encoding="UTF-8"?>
<svg xmlns="http://www.w3.org/2000/svg" width="21" height="18.375" viewBox="0 0 21 18.375">
  <path id="Path_958" data-name="Path 958" d="M20.918-9.064v.041A.147.147,0,0,1,21-8.88a.407.407,0,0,1-.041.185l-.533.656a.147.147,0,0,1-.144.082.255.255,0,0,1-.185-.082L18.375-9.393V0a1.261,1.261,0,0,1-.39.923,1.261,1.261,0,0,1-.923.39H12.3a.475.475,0,0,1-.349-.144A.475.475,0,0,1,11.813.82V-4.594H9.188V.82a.475.475,0,0,1-.144.349.475.475,0,0,1-.349.144H3.938a1.261,1.261,0,0,1-.923-.39A1.261,1.261,0,0,1,2.625,0V-9.393L.9-8.039a.2.2,0,0,1-.185.062.192.192,0,0,1-.144-.1L.041-8.7A.407.407,0,0,1,0-8.88a.255.255,0,0,1,.082-.185l9.6-7.711a1.3,1.3,0,0,1,.82-.287,1.3,1.3,0,0,1,.82.287l5.742,4.635v-2.051a.216.216,0,0,1,.082-.185.273.273,0,0,1,.164-.062h.82a.273.273,0,0,1,.164.062.216.216,0,0,1,.082.185v3.117ZM17.063,0V-10.459l-6.4-5.168a.25.25,0,0,0-.328,0l-6.4,5.168V0H7.875V-5.414a.475.475,0,0,1,.144-.349.475.475,0,0,1,.349-.144h4.266a.475.475,0,0,1,.349.144.475.475,0,0,1,.144.349V0Z" transform="translate(0 17.063)" fill="#fff"></path>
</svg>
