<?xml version="1.0" encoding="UTF-8"?>
<svg xmlns="http://www.w3.org/2000/svg" width="18.375" height="21" viewBox="0 0 18.375 21">
  <path id="Path_958" data-name="Path 958" d="M9.188-5.25a.639.639,0,0,0-.472.185.639.639,0,0,0-.185.472.639.639,0,0,0,.185.472.639.639,0,0,0,.472.185.639.639,0,0,0,.472-.185.639.639,0,0,0,.185-.472.639.639,0,0,0-.185-.472A.639.639,0,0,0,9.188-5.25Zm0-1.312a1.9,1.9,0,0,1,1.395.574,1.9,1.9,0,0,1,.574,1.395A1.9,1.9,0,0,1,10.582-3.2a1.9,1.9,0,0,1-1.395.574A1.9,1.9,0,0,1,7.793-3.2a1.9,1.9,0,0,1-.574-1.395,1.9,1.9,0,0,1,.574-1.395A1.9,1.9,0,0,1,9.188-6.562Zm3.938-11.812a6.333,6.333,0,0,1,2.543.533,5.113,5.113,0,0,1,1.969,1.436,3.044,3.044,0,0,1,.738,1.969v10.5a3.248,3.248,0,0,1-1.292,2.5,5.864,5.864,0,0,1-3.1,1.354l2.256,2.3a.234.234,0,0,1-.164.41H15.012a.39.39,0,0,1-.328-.164L12.182,0H6.193l-2.5,2.461a.39.39,0,0,1-.328.164H2.3a.234.234,0,0,1-.164-.41l2.256-2.3a5.864,5.864,0,0,1-3.1-1.354A3.248,3.248,0,0,1,0-3.937v-10.5a3,3,0,0,1,.759-1.969,5.328,5.328,0,0,1,1.969-1.436,6.19,6.19,0,0,1,2.522-.533ZM1.313-13.125v3.938h15.75v-3.937ZM5.25-17.062a4.936,4.936,0,0,0-1.887.369,4.114,4.114,0,0,0-1.477.984,1.861,1.861,0,0,0-.574,1.271h15.75a1.887,1.887,0,0,0-.513-1.189,3.651,3.651,0,0,0-1.333-.984,4.961,4.961,0,0,0-2.092-.451Zm7.875,15.75a4.936,4.936,0,0,0,1.887-.369,4.114,4.114,0,0,0,1.477-.984,1.861,1.861,0,0,0,.574-1.271V-7.875H1.313v3.938a1.861,1.861,0,0,0,.574,1.271,4.114,4.114,0,0,0,1.477.984,4.936,4.936,0,0,0,1.887.369Z" transform="translate(0 18.375)" fill="#fff"></path>
</svg>
