<svg xmlns="http://www.w3.org/2000/svg" width="68.416" height="79" viewBox="0 0 68.416 79">
  <g id="Group_134" data-name="Group 134" transform="translate(554.416 7196.5) rotate(180)">
    <g id="Path_135" data-name="Path 135" transform="translate(561.649 7001.35)" fill="none">
      <path d="M-7.233,175.4V135.9l-34.208-19.75L-75.649,135.9v39.5l34.208,19.75Z" stroke="none"/>
      <path d="M -41.44070434570312 192.8412475585938 L -9.232692718505859 174.2459564208984 L -9.232692718505859 137.0553283691406 L -41.44070434570312 118.4600448608398 L -73.64871978759766 137.0553283691406 L -73.64871978759766 174.2459564208984 L -41.44070434570312 192.8412475585938 M -41.44070434570312 195.1506500244141 L -75.64871978759766 175.4006500244141 L -75.64871978759766 135.900634765625 L -41.44070434570312 116.1506500244141 L -7.232692718505859 135.900634765625 L -7.232692718505859 175.4006500244141 L -41.44070434570312 195.1506500244141 Z" stroke="none" fill="#d51030"/>
    </g>
    <g id="Group_119" data-name="Group 119" transform="translate(346.208 5261.5)">
      <path id="Path_128" data-name="Path 128" d="M-5099.792-2204.269l5,5-5,5" transform="translate(5282.292 4094.769)" fill="none" stroke="#d51030" stroke-width="2"/>
      <path id="Path_130" data-name="Path 130" d="M0,0H27" transform="translate(160.5 1895.5)" fill="none" stroke="#d51030" stroke-width="2"/>
    </g>
  </g>
</svg>
