<svg version="1.1" id="Layer_1" xmlns="http://www.w3.org/2000/svg" xmlns:xlink="http://www.w3.org/1999/xlink" x="0px" y="0px"
	 viewBox="0 0 284.1 63" enable-background="new 0 0 284.1 63" xml:space="preserve">
<path fill="#D6213B" d="M284.2,17.6c-1.8,1.4-3.6,2.9-5.4,4.3c-0.3,0.2-0.6,0.2-0.8,0c-1.7-1.4-3.5-2.8-5.2-4.1
	c-0.2-0.1-0.2-0.3-0.2-0.5c0.1-0.2,0.2-0.3,0.5-0.3c0.9,0,0.9,0,0.8-1c-0.2-1.8-0.5-3.6-1.4-5.2c-0.8-1.6-2.1-2.6-4-2.6
	c-1.5,0-2.6,0.8-3.3,2c-0.9,1.4-1.3,3-1.6,4.6c-0.6,4.4-0.6,8.9,0.1,13.3c0.2,1.5,0.7,3,1.5,4.3c1.6,2.6,5.3,2.6,7-0.1
	c0.8-1.3,1.2-2.8,1.5-4.3c0.3-1.8,0.4-3.6,0.5-5.5c0-0.1,0-0.2,0.1-0.2c1.2,0.9,2.4,1.9,3.5,2.8c0.6,0.5,0.7,0.5,1.3,0
	c1.2-0.9,2.3-1.9,3.6-2.8c0.1,0.8,0,1.5-0.1,2.2c-0.2,2.9-0.7,5.8-1.8,8.5c-1,2.4-2.3,4.4-4.4,6c-2.6,2.1-5.7,2.7-9,2.4
	c-5.4-0.5-8.8-3.6-10.8-8.4c-1.3-3.2-1.8-6.5-1.9-9.9c-0.1-2.8,0-5.7,0.5-8.5c0.6-3.5,1.8-6.8,4.2-9.5c2.7-3.1,6.2-4.4,10.3-4.1
	c3,0.2,5.6,1.2,7.8,3.3c1.9,1.9,3.1,4.2,3.9,6.7c0.6,1.8,0.9,3.6,1.1,5.5c0,0.4,0.2,0.4,0.5,0.4c0.4,0,0.9-0.2,1.3,0.2
	C284.2,17.4,284.2,17.5,284.2,17.6z"/>
<path fill="#939598" d="M0.1,53c0.5,0,0.9,0,1.4,0c0.4,0,0.5,0.1,0.4,0.5c0,1.8,0,3.7,0,5.5c0,0.3,0,0.7,0.1,1c0.3,0.9,1,1.5,2,1.4
	c1.1-0.1,1.8-0.7,1.9-1.7c0.1-0.4,0.1-0.8,0.1-1.2c0-1.7,0-3.4,0-5.1C6,53.1,6.1,53,6.5,53c0.4,0.1,1-0.2,1.3,0.1
	c0.3,0.3,0.1,0.8,0.1,1.2c0,1.6,0,3.3,0,4.9c0,1.2-0.3,2.2-1.3,3C6,62.7,5.4,62.9,4.7,63c-0.2,0-0.4,0-0.5,0.1c-0.2,0-0.3,0-0.5,0
	C3.6,63,3.4,63,3.3,63c-1.5,0.1-3.1-1.3-3.1-2.9c0,0,0-0.1,0-0.1C0.1,57.7,0.1,55.4,0.1,53z"/>
<path fill="#939598" d="M166.2,63.1c-0.3-0.1-0.6-0.1-0.8-0.1c-1.9-0.4-3-1.5-3.4-3.3c-0.4-1.5-0.3-3,0.4-4.4
	c0.9-1.8,2.9-2.7,4.9-2.4c0.7,0.1,1.4,0.2,2,0.5c0.2,0.1,0.3,0.2,0.2,0.4c-0.1,0.3-0.2,0.8-0.4,1c-0.3,0.2-0.7-0.2-1-0.3
	c-1.3-0.3-2.5-0.3-3.5,0.7c-0.4,0.4-0.6,0.9-0.7,1.4c-0.2,0.8-0.2,1.7,0,2.5c0.4,1.5,1.4,2.3,3,2.3c0.7,0,1.4-0.1,2.1-0.5
	c0.2-0.1,0.3,0,0.4,0.2c0,0.2,0.1,0.3,0.2,0.5c0.3,0.8,0.3,0.7-0.5,1c-0.7,0.2-1.4,0.2-2.1,0.4C166.6,63.1,166.4,63.1,166.2,63.1z"
	/>
<path fill="#939598" d="M136.9,63.1c-0.4-0.1-0.8-0.1-1.2-0.2c-1.5-0.4-2.4-1.4-2.8-2.8c-0.4-1.3-0.5-2.7,0-4
	c0.8-2.4,2.9-3.5,5.2-3.2c0.7,0.1,1.4,0.2,2,0.5c0.2,0.1,0.3,0.2,0.2,0.5c-0.1,0.3-0.2,0.8-0.4,1c-0.3,0.2-0.7-0.2-1-0.3
	c-0.7-0.2-1.5-0.3-2.2-0.1c-1.2,0.3-1.9,1.4-2.1,2.9c-0.1,0.6,0,1.3,0.2,1.9c0.4,1.5,1.5,2.3,3,2.2c0.7,0,1.3-0.1,2-0.4
	c0.2-0.1,0.4-0.1,0.4,0.2c0.4,1.4,0.7,1.1-0.9,1.6c-0.5,0.2-1.1,0.1-1.6,0.2C137.4,63.1,137.2,63.1,136.9,63.1z"/>
<path fill="#939598" d="M265.6,63.1c-0.7-0.1-1.4-0.2-2-0.4c-0.3-0.1-0.5-0.2-0.3-0.6c0.1-0.3,0-0.8,0.3-1c0.2-0.2,0.6,0.2,0.9,0.2
	c0.7,0.2,1.5,0.2,2.2,0.1c0.7-0.2,1.2-0.7,1.2-1.4c0-0.7-0.3-1.3-1-1.5c-0.5-0.2-1-0.2-1.6-0.2c-0.3,0-0.3-0.1-0.4-0.4
	c0-1,0-1,1-1.1c1.1-0.1,1.7-0.8,1.5-1.7c-0.1-0.5-0.6-0.9-1.3-0.9c-0.7,0-1.3,0.1-1.9,0.4c-0.3,0.2-0.4,0.1-0.5-0.2
	c-0.5-1-0.5-1,0.6-1.4c1.1-0.4,2.1-0.5,3.2-0.1c0.9,0.3,1.5,1,1.6,2c0.1,1-0.2,1.8-1,2.4c-0.1,0-0.1,0.1-0.1,0.1
	c0,0.1,0.1,0.1,0.2,0.2c1,0.5,1.5,1.3,1.4,2.4c0,1.2-0.6,2.1-1.7,2.6c-0.6,0.3-1.2,0.3-1.9,0.4C265.9,63.1,265.7,63.1,265.6,63.1z"
	/>
<path fill="#939598" d="M0.1,60c0.2,0.4,0.2,0.9,0.5,1.3c0.6,1,1.5,1.5,2.7,1.6c0.2,0,0.3,0,0.5,0.1c-1.1,0-2.2,0-3.4,0
	c-0.2,0-0.2,0-0.2-0.2C0.1,61.9,0.1,61,0.1,60z"/>
<path d="M168.7,32.3c0.4-1.2,0.7-2.3,1.1-3.4c1.7-5.6,3.2-11.4,4.5-17.1c0.1-0.3,0.2-0.4,0.5-0.4c1.5,0,3,0,4.5,0
	c0.3,0,0.4,0.1,0.5,0.4c1.3,6,2.8,12,4.6,17.8c0.3,0.9,0.5,1.7,0.8,2.6c0.2-0.3,0.2-0.5,0.3-0.8c2-6.5,3.8-13,5.3-19.6
	c0.1-0.4,0.2-0.5,0.6-0.5c2,0,4.1,0,6.1,0c0.2,0,0.4-0.1,0.3,0.3c-2.4,8.6-4.9,17.2-8.2,25.5c-0.4,1-0.8,2-1.2,3
	c-0.1,0.2-0.2,0.3-0.5,0.3c-1.6,0-3.2,0-4.8,0c-0.3,0-0.4-0.1-0.5-0.4c-2-5.8-4-11.5-5.5-17.4c0-0.1-0.1-0.2-0.1-0.3
	c-0.4,1.5-0.8,2.9-1.2,4.2c-1.3,4.5-2.8,9-4.3,13.5c-0.1,0.3-0.3,0.5-0.6,0.5c-1.6,0-3.1,0-4.7,0c-0.3,0-0.5-0.1-0.6-0.4
	c-2.4-5.7-4.4-11.5-6.2-17.4c-1.1-3.6-2.2-7.2-3.2-10.9c-0.1-0.4,0-0.4,0.3-0.4c2.1,0,4.2,0,6.3,0c0.4,0,0.4,0.1,0.5,0.4
	c1.6,6.7,3.2,13.4,5.4,20C168.6,31.9,168.6,32.1,168.7,32.3z"/>
<path fill="#D6213B" d="M202.3,10c0.4-1.6,0.9-3.2,1.3-4.7c0.3-1.1,0.6-2.2,0.9-3.2c0-0.2,0.1-0.4,0.3-0.4c4.2-1,8.3-1,12.2,0.7
	c3.5,1.5,5.3,4.3,5.7,8.1c0.3,2.8-0.5,5.3-2.4,7.4c-0.6,0.7-1.4,1.2-2.2,1.7c0.8,0.4,1.6,0.8,2.2,1.2c2.2,1.6,3.5,3.8,3.9,6.5
	c0.3,2.4,0.1,4.8-0.9,7c-1.3,3-3.8,4.8-6.8,5.9c-2.9,1-6,1.3-9,1.1c-3.1-0.2-6.2-0.8-9.1-1.8c-0.7-0.2-0.7-0.3-0.5-1
	c0.4-1.9,0.9-3.8,1.3-5.7c0.1-0.6,0.1-0.5,0.7-0.3c1.9,0.7,3.8,1.4,5.9,1.6c2.1,0.2,4.2,0.3,6.3-0.2c2-0.5,3.4-1.7,3.8-3.8
	c0.6-2.8-0.7-4.9-3.5-5.9c-1.4-0.5-2.9-0.6-4.4-0.6c-1.1,0-2.1,0-3.2,0c-0.3,0-0.4-0.1-0.4-0.4c0-2,0-4,0-6c0-0.3,0.1-0.4,0.4-0.4
	c1.5,0,3.1,0.1,4.6-0.1c0.8-0.1,1.6-0.2,2.4-0.5c1.9-0.8,2.8-2.3,2.7-4.5c-0.1-1.6-1.4-3-3.2-3.4c-2.3-0.6-4.5-0.2-6.6,0.6
	C203.8,9.2,203.1,9.6,202.3,10z"/>
<path d="M97.6,32.5c0.5-1.3,1-2.6,1.4-3.8c2-5.6,3.9-11.2,5.3-17c0.1-0.3,0.2-0.4,0.5-0.4c2,0,4,0,6.1,0c0.6,0,0.6,0,0.4,0.5
	c-1.9,6.8-4.3,13.4-7,20c-1.2,2.8-2.4,5.5-3.7,8.2c-0.2,0.4-0.4,0.5-0.8,0.5c-1.6,0-3.2,0-4.8,0c-0.4,0-0.5-0.1-0.7-0.4
	c-2.9-6.1-5.5-12.4-7.8-18.8c-1.1-3.1-2.1-6.2-3-9.4c-0.1-0.4,0-0.5,0.4-0.5c2.1,0,4.1,0,6.2,0c0.4,0,0.6,0.1,0.7,0.5
	c1.7,6.8,3.9,13.5,6.5,20C97.5,32.1,97.5,32.2,97.6,32.5z"/>
<path d="M34.9,26.6c0-4.4,0-8.9,0-13.3c0-0.4,0.1-0.5,0.4-0.6c3.8-1.2,7.6-2,11.6-1.8c1.8,0.1,3.6,0.4,5.4,0.9
	c0.3,0.1,0.4,0.2,0.3,0.5c-0.4,1.6-0.7,3.3-1,4.9c-0.1,0.3-0.2,0.4-0.5,0.3c-2.1-0.6-4.2-0.9-6.4-0.7c-0.9,0.1-1.8,0.3-2.7,0.4
	c-0.3,0.1-0.4,0.2-0.4,0.5c0,1.6,0,3.2,0,4.7c0,5.9,0,11.8,0,17.7c0,0.4-0.1,0.5-0.5,0.5c-1.9,0-3.8,0-5.7,0c-0.5,0-0.5-0.1-0.5-0.6
	C34.9,35.5,34.9,31.1,34.9,26.6z"/>
<path d="M115.1,25.9c0-4.7,0-9.3,0-14c0-0.5,0.1-0.6,0.6-0.6c1.9,0,3.8,0,5.7,0c0.4,0,0.4,0.1,0.4,0.4c0,9.4,0,18.9,0,28.3
	c0,0.3-0.1,0.4-0.4,0.4c-2,0-4,0-6,0c-0.4,0-0.4-0.1-0.4-0.5C115.1,35.4,115.1,30.7,115.1,25.9z"/>
<path fill="#939598" d="M121.4,56c0,2.1,0,4.2,0,6.3c0,0.4-0.1,0.5-0.5,0.5c-1.3,0-1.3,0-1.3-1.3c0-2.7,0-5.4,0-8
	c0-0.4,0.1-0.5,0.5-0.5c0.7-0.1,1.2,0.2,1.7,0.8c1.3,1.6,2.6,3.3,3.7,5.1c0.1,0.2,0.2,0.3,0.3,0.5c0.1-0.2,0.1-0.4,0.1-0.6
	c0-1.7,0-3.4,0-5.1c0-0.4,0.1-0.6,0.5-0.5c1.3,0,1.3,0,1.3,1.3c0,2.7,0,5.4,0,8c0,0.4-0.1,0.5-0.5,0.5c-0.8,0.1-1.2-0.2-1.6-0.9
	c-1.2-2.1-2.6-4-4.1-5.9c0-0.1-0.1-0.1-0.1-0.2C121.5,55.9,121.5,55.9,121.4,56z"/>
<path fill="#939598" d="M250.5,59.4c0-2.1,0-4,0-5.9c0-0.4,0.1-0.6,0.5-0.5c0.4,0,0.9-0.2,1.2,0.1c0.3,0.3,0.1,0.8,0.1,1.2
	c0,2.7,0,5.4,0,8c0,0.4-0.1,0.5-0.5,0.5c-0.8,0.1-1.2-0.2-1.6-0.9c-1.1-1.9-2.4-3.8-3.8-5.5c-0.1-0.2-0.2-0.3-0.4-0.4
	c-0.1,0.2-0.1,0.4-0.1,0.6c0,1.9,0,3.8,0,5.7c0,0.3-0.1,0.5-0.4,0.5c-1.3,0-1.3,0-1.3-1.3c0-2.7,0-5.3,0-8c0-0.4,0.1-0.5,0.5-0.5
	c0.8-0.1,1.3,0.3,1.8,0.9c1.3,1.7,2.6,3.4,3.8,5.1C250.3,59.1,250.3,59.2,250.5,59.4z"/>
<path fill="#939598" d="M208.8,59.4c0.1-0.2,0.1-0.3,0.1-0.5c0-1.8,0-3.6,0-5.4c0-0.4,0.1-0.5,0.5-0.5c0.3,0,0.6,0,0.9,0
	c0.3,0,0.4,0.1,0.4,0.4c0,3,0,6,0,9c0,0.3-0.1,0.4-0.4,0.4c-0.8,0.1-1.3-0.2-1.7-0.9c-1.2-2-2.5-3.9-4-5.8c-0.1-0.1-0.1-0.2-0.2-0.3
	c-0.1,0.1-0.1,0.3-0.1,0.4c0,2,0,4,0,6c0,0.4-0.1,0.5-0.5,0.5c-0.4,0-1,0.2-1.2-0.1c-0.3-0.3-0.1-0.8-0.1-1.2c0-2.7,0-5.3,0-8
	c0-0.4,0.1-0.5,0.5-0.5c0.7-0.1,1.3,0.2,1.7,0.8c1.4,1.7,2.7,3.5,3.9,5.3C208.7,59.1,208.7,59.2,208.8,59.4z"/>
<path fill="#939598" d="M14.8,56c-0.1,0.2-0.1,0.3-0.1,0.5c0,2,0,3.9,0,5.9c0,0.3-0.1,0.5-0.4,0.5c-1.3,0-1.3,0-1.3-1.3
	c0-2.7,0-5.4,0-8c0-0.4,0.1-0.5,0.5-0.5c0.8-0.1,1.3,0.2,1.8,0.8c1.4,1.8,2.8,3.6,4,5.5c0.2-0.1,0.1-0.3,0.1-0.4c0-1.8,0-3.7,0-5.5
	c0-0.4,0.1-0.5,0.5-0.4c0.4,0,1-0.2,1.2,0.1c0.3,0.3,0.1,0.8,0.1,1.2c0,2.7,0,5.3,0,8c0,0.4-0.1,0.5-0.5,0.5
	c-0.8,0.1-1.2-0.2-1.6-0.9c-1.2-2-2.5-3.9-3.9-5.7C15,56.2,15,56,14.8,56z"/>
<path fill="#939598" d="M53.8,62.8c0.8-1.6,1.9-3,2.9-4.3c0.5-0.7,0.5-0.7,0-1.4c-0.9-1.3-1.7-2.5-2.5-3.8c-0.1-0.1-0.1-0.1-0.1-0.3
	c0.6,0,1.2,0,1.9,0c0.2,0,0.3,0.2,0.4,0.3c0.6,0.9,1.2,1.9,1.9,2.8c0.6-0.9,1.2-1.7,1.7-2.5c0.3-0.5,0.7-0.7,1.2-0.7
	c0.4,0,0.8,0,1.2,0c0.1,0.2-0.1,0.3-0.2,0.4c-0.9,1.4-1.8,2.7-2.7,4c-0.2,0.2-0.2,0.4,0,0.6c1,1.4,2,2.8,2.9,4.3
	c0.1,0.1,0.2,0.3,0.2,0.5c-0.6,0-1.3,0-1.9,0c-0.2,0-0.3-0.2-0.4-0.4c-0.6-1.1-1.3-2.1-2.1-3.1c-0.8,1-1.5,2-2.1,3.1
	c-0.2,0.3-0.4,0.4-0.7,0.4C54.9,62.8,54.4,62.8,53.8,62.8z"/>
<path fill="#939598" d="M144.8,57.9c0-1.5,0-3,0-4.4c0-0.3,0.1-0.4,0.4-0.4c1.8,0,3.7,0,5.5,0c0.3,0,0.4,0.1,0.4,0.4
	c0,1.1,0,1.1-1.1,1.1c-1,0-2,0-3,0c-0.3,0-0.5,0.1-0.5,0.4c0,0.5,0,1,0,1.6c0,0.3,0.1,0.4,0.4,0.4c1.1,0,2.1,0,3.2,0
	c0.3,0,0.4,0.1,0.4,0.4c0,1.1,0,1.1-1.1,1.1c-0.9,0-1.7,0-2.6,0c-0.3,0-0.4,0.1-0.4,0.4c0,0.7,0,1.4,0,2c0,0.3,0.1,0.4,0.4,0.4
	c1.3,0,2.7,0,4,0c0.4,0,0.5,0.1,0.5,0.5c0,1,0,1-1,1c-1.7,0-3.4,0-5.1,0c-0.4,0-0.6-0.1-0.6-0.5C144.8,60.8,144.8,59.4,144.8,57.9z"
	/>
<path fill="#939598" d="M233,57.9c0-1.5,0-3,0-4.4c0-0.3,0.1-0.5,0.4-0.5c1.8,0,3.7,0,5.5,0c0.3,0,0.4,0.1,0.4,0.4
	c0,1.1,0,1.1-1.1,1.1c-1,0-2,0-3,0c-0.3,0-0.5,0.1-0.5,0.4c0,0.5,0,1,0,1.6c0,0.3,0.1,0.4,0.4,0.4c1.1,0,2.1,0,3.2,0
	c0.3,0,0.5,0.1,0.5,0.5c0,1.1,0,1.1-1.1,1.1c-0.9,0-1.8,0-2.6,0c-0.3,0-0.4,0.1-0.4,0.4c0,0.7,0,1.4,0,2.1c0,0.3,0.1,0.4,0.4,0.4
	c1.4,0,2.7,0,4.1,0c0.3,0,0.4,0.1,0.4,0.4c0,1.1,0,1.1-1.1,1.1c-1.7,0-3.4,0-5.2,0c-0.4,0-0.5-0.1-0.5-0.5
	C233,60.9,233,59.4,233,57.9z"/>
<path fill="#939598" d="M43.6,57.9c0-1.5,0-3,0-4.5c0-0.3,0.1-0.5,0.4-0.5c1.8,0,3.6,0,5.4,0c0.3,0,0.4,0.1,0.4,0.4
	c0,1.1,0,1.1-1.1,1.1c-1,0-2,0-3,0c-0.3,0-0.4,0.1-0.4,0.4c0,0.6,0,1.1,0,1.7c0,0.3,0.1,0.4,0.4,0.4c1.1,0,2.1,0,3.2,0
	c0.3,0,0.5,0.1,0.5,0.4c0,1.1,0,1.1-1.1,1.1c-0.9,0-1.7,0-2.6,0c-0.3,0-0.4,0.1-0.4,0.4c0,0.7,0,1.4,0,2.1c0,0.4,0.1,0.4,0.4,0.4
	c1.3,0,2.6,0,3.9,0c0.4,0,0.5,0.1,0.5,0.5c0,1,0,1-1.1,1c-1.7,0-3.4,0-5.2,0c-0.4,0-0.5-0.1-0.5-0.5C43.6,60.9,43.6,59.4,43.6,57.9z
	"/>
<path fill="#939598" d="M108.5,57.9c0-1.5,0-3,0-4.5c0-0.3,0.1-0.4,0.4-0.4c1.8,0,3.6,0,5.4,0c0.3,0,0.4,0.1,0.4,0.4
	c0,1.1,0,1.1-1.1,1.1c-1,0-2,0-3,0c-0.3,0-0.4,0.1-0.4,0.4c0,0.5,0,1.1,0,1.6c0,0.3,0.1,0.4,0.4,0.4c1,0,2.1,0,3.1,0
	c0.4,0,0.5,0.1,0.5,0.5c0,1.1,0,1.1-1.1,1.1c-0.9,0-1.7,0-2.6,0c-0.3,0-0.4,0.1-0.4,0.3c0,0.7,0,1.4,0,2.1c0,0.3,0.1,0.4,0.4,0.4
	c1.3,0,2.7,0,4,0c0.3,0,0.4,0.1,0.4,0.4c0,1.1,0,1.1-1.1,1.1c-1.7,0-3.4,0-5.1,0c-0.4,0-0.5-0.1-0.5-0.5
	C108.5,60.9,108.5,59.4,108.5,57.9z"/>
<path fill="#939598" d="M78.5,57.9c0-1.5,0-2.9,0-4.4c0-0.3,0.1-0.5,0.5-0.5c1.8,0,3.6,0,5.4,0c0.4,0,0.5,0.1,0.4,0.5
	c0,1.1,0,1.1-1.1,1.1c-1,0-2.1,0-3.1,0c-0.3,0-0.4,0.1-0.4,0.4c0,0.5,0,1.1,0,1.6c0,0.4,0.1,0.4,0.4,0.4c1,0,2.1,0,3.1,0
	c0.4,0,0.5,0.1,0.5,0.4c0,1.1,0,1.1-1.1,1.1c-0.8,0-1.7,0-2.5,0c-0.3,0-0.4,0.1-0.4,0.4c0,0.7,0,1.4,0,2c0,0.3,0.1,0.4,0.4,0.4
	c1.3,0,2.7,0,4,0c0.4,0,0.5,0.1,0.4,0.5c0,1.1,0,1.1-1.1,1.1c-1.7,0-3.3,0-5,0c-0.5,0-0.6-0.1-0.6-0.6
	C78.5,60.8,78.5,59.3,78.5,57.9z"/>
<path fill="#939598" d="M191.4,57.9c0-1.5,0-3,0-4.4c0-0.4,0.1-0.5,0.5-0.5c1.8,0,3.6,0,5.4,0c0.4,0,0.5,0.1,0.5,0.5c0,1,0,1-1,1
	c-1,0-2,0-3,0c-0.4,0-0.5,0.1-0.4,0.5c0,0.5,0,1,0,1.6c0,0.3,0.1,0.4,0.4,0.4c1.1,0,2.1,0,3.2,0c0.3,0,0.4,0.1,0.4,0.4
	c0,1.1,0,1.1-1.1,1.1c-0.8,0-1.7,0-2.5,0c-0.3,0-0.5,0.1-0.4,0.4c0,0.7,0,1.4,0,2.1c0,0.3,0.1,0.4,0.4,0.4c1.3,0,2.7,0,4,0
	c0.4,0,0.5,0.1,0.5,0.4c0,1.1,0,1.1-1.1,1.1c-1.7,0-3.4,0-5.1,0c-0.4,0-0.5-0.1-0.5-0.5C191.4,60.9,191.4,59.4,191.4,57.9z"/>
<path fill="#939598" d="M26.3,57.9c0-1.5,0-3,0-4.4c0-0.3,0.1-0.4,0.4-0.4c1.8,0,3.6,0,5.4,0c0.3,0,0.4,0.1,0.4,0.4
	c0,1.1,0,1.1-1.1,1.1c-1,0-2,0-2.9,0c-0.4,0-0.5,0.1-0.5,0.5c0,0.5,0,1,0,1.5c0,0.3,0.1,0.4,0.4,0.4c1.1,0,2.1,0,3.2,0
	c0.3,0,0.4,0.1,0.4,0.4c0,1.1,0,1.1-1.1,1.1c-0.9,0-1.7,0-2.6,0c-0.3,0-0.4,0.1-0.4,0.3c0,0.7,0,1.4,0,2.1c0,0.3,0.1,0.4,0.4,0.4
	c1.3,0,2.7,0,4,0c0.3,0,0.5,0.1,0.5,0.4c0,1.1,0,1.1-1.1,1.1c-1.7,0-3.3,0-5,0c-0.5,0-0.6-0.1-0.6-0.6
	C26.3,60.8,26.3,59.3,26.3,57.9z"/>
<path fill="#939598" d="M219.6,58.7c0,1.2,0,2.5,0,3.7c0,0.3-0.1,0.5-0.4,0.5c-0.4,0-1,0.2-1.3-0.1c-0.3-0.3-0.1-0.8-0.1-1.3
	c0-2.1,0-4.3,0-6.4c0-0.4-0.1-0.6-0.5-0.5c-0.7,0-1.4,0-2.1,0c-0.3,0-0.4-0.1-0.4-0.4c0-1.1,0-1.1,1.1-1.1c2.1,0,4.1,0,6.2,0
	c0.4,0,0.5,0.1,0.5,0.5c0,1.1,0,1.1-1.1,1.1c-0.4,0-0.8,0-1.2,0c-0.7,0-0.7,0-0.7,0.7C219.6,56.4,219.6,57.5,219.6,58.7z"/>
<path fill="#939598" d="M174,57.9c0-1.5,0-2.9,0-4.4c0-0.3,0.1-0.5,0.4-0.5c0.3,0,0.6,0,0.9,0c0.4,0,0.5,0.1,0.5,0.5
	c0,2.4,0,4.8,0,7.2c0,0.4,0.1,0.6,0.5,0.6c1.2,0,2.3,0,3.5,0c0.3,0,0.4,0.1,0.4,0.4c0,1.1,0,1.1-1.1,1.1c-1.5,0-3.1,0-4.6,0
	c-0.4,0-0.5-0.1-0.5-0.5C174,60.8,174,59.3,174,57.9z"/>
<path fill="#939598" d="M186.2,58c0,1.5,0,2.9,0,4.4c0,0.3-0.1,0.5-0.4,0.5c-0.3,0-0.7,0-1,0c-0.2,0-0.3-0.1-0.3-0.3
	c0-3.1,0-6.1,0-9.2c0-0.3,0.1-0.3,0.3-0.3c0.3,0,0.7,0,1,0c0.3,0,0.4,0.1,0.4,0.4C186.2,54.9,186.2,56.5,186.2,58z"/>
<path fill="#939598" d="M103.3,57.9c0,1.5,0,2.9,0,4.4c0,0.4-0.1,0.6-0.5,0.5c-0.4,0-1,0.2-1.2-0.1c-0.3-0.3-0.1-0.8-0.1-1.2
	c0-2.6,0-5.3,0-7.9c0-0.5,0.1-0.6,0.6-0.6c1.2,0,1.2,0,1.2,1.3C103.3,55.5,103.3,56.7,103.3,57.9z"/>
<path fill="#939598" d="M81.8,52.3c-0.2-0.2-0.5-0.4-0.7-0.7c-0.2-0.2,0.1-0.3,0.2-0.4c0.5-0.6,1.1-1.2,1.6-1.9
	c0.1-0.2,0.2-0.2,0.4-0.1c0.2,0.2,0.5,0.5,0.8,0.7c0.1,0.1,0.1,0.2,0,0.3c-0.7,0.7-1.4,1.3-2.1,2C81.9,52.2,81.8,52.3,81.8,52.3z"/>
<path fill="#D6213B" d="M252.9,24.5c-0.8-3.4-2.7-5.8-5.9-7.3c-2.5-1.2-5.2-1.5-7.9-1.3c-1.4,0.1-2.7,0.3-4,0.9
	c0.1-0.2,0.1-0.3,0.1-0.3c1.1-2.7,2.9-4.6,5.5-5.9c3-1.5,6.2-2,9.6-2.1c0.4,0,0.5-0.1,0.5-0.5c-0.2-2-0.3-3.9-0.4-5.9
	c0-0.4-0.1-0.4-0.5-0.4c-3.4,0.1-6.8,0.5-10,1.6c-6.7,2.3-11.2,6.8-13.2,13.7c-0.9,2.9-1.1,6-1,9c0.1,2.5,0.5,5,1.5,7.4
	c1.4,3.4,3.7,5.9,7.3,7.1c2.4,0.8,4.9,1,7.4,0.7c4.1-0.5,7.2-2.4,9.4-5.9C253.3,32,253.8,28.4,252.9,24.5z M243.9,32.2
	c-2,3.1-6.9,2.9-8.6-0.5c-0.8-1.6-1.1-3.3-1.2-5.1c0-0.3,0-0.7-0.1-1.1c-0.1-0.6,0-1.2,0-1.8c0-0.4,0.1-0.5,0.4-0.6
	c0.9-0.3,1.9-0.5,2.8-0.6c1.2-0.1,2.5-0.1,3.7,0.1c2.1,0.4,3.3,1.7,3.8,3.7C245.3,28.4,245.1,30.4,243.9,32.2z"/>
<path d="M28.7,12c-0.4-3.5-2.1-6.2-5.2-8c-2.1-1.2-4.5-1.8-6.9-2.2c-2.3-0.3-4.7-0.4-7.1-0.3C6.7,1.7,3.9,1.8,1.1,2.4
	C0.7,2.5,0.5,2.6,0.5,3.1c0,6.1,0,12.3,0,18.4c0,6.2,0,12.4,0,18.6c0,0.4,0.1,0.5,0.5,0.5c2,0,4,0,6,0c0.5,0,0.5-0.1,0.5-0.6
	c0-4.2,0-8.3,0-12.5C7.5,27,7.7,27,8.1,27c1.7,0,3.4,0,5.2,0c2.8-0.2,5.6-0.5,8.2-1.5c3.1-1.2,5.5-3.2,6.6-6.5
	C28.9,16.7,29,14.4,28.7,12z M20.6,17.7c-0.7,1.2-1.7,1.8-3,2.3c-1.9,0.7-4,0.9-6,0.9c-1.2,0-2.5,0-3.7,0c-0.4,0-0.4-0.1-0.4-0.4
	c0-2,0-4.1,0-6.2c0-2,0-4.1,0-6.1c0-0.3,0-0.5,0.4-0.5c2.4-0.1,4.7-0.2,7.1,0.1c1.5,0.2,2.9,0.6,4.1,1.4c1.8,1.3,2.4,3.1,2.3,5.3
	C21.4,15.6,21.2,16.7,20.6,17.7z"/>
<path d="M153,19.7c-0.7-2.6-1.9-4.9-4.1-6.6c-3.2-2.4-6.8-2.9-10.6-2.2c-5,0.9-8.2,4-9.9,8.7c-1.3,3.4-1.3,7-0.7,10.6
	c1.1,6.2,5.6,10.2,11.8,10.9c2.5,0.3,4.9,0.2,7.3-0.2c1.5-0.2,3-0.6,4.5-1.2c0.3-0.1,0.4-0.2,0.3-0.6c-0.3-1.6-0.5-3.2-0.8-4.9
	c0-0.3-0.2-0.3-0.4-0.2c-2.6,1-5.3,1.4-8,1.3c-1.5-0.1-3-0.3-4.3-1c-2.4-1.3-3.5-3.4-3.8-6c0-0.4,0.2-0.3,0.4-0.3c3,0,6.1,0,9.1,0
	c3.1,0,6.1,0,9.2,0c0.2,0,0.5,0.1,0.5-0.3C153.8,25.1,153.7,22.4,153,19.7z M146.5,23.1c-2,0-3.9,0-5.9,0c-1.9,0-3.9,0-5.8,0
	c-0.4,0-0.4-0.1-0.3-0.4c0.4-2,1-3.8,2.7-5.1c3.6-2.8,8.6-1,9.5,3.4c0.1,0.5,0.2,1.1,0.2,1.6C146.9,23,146.9,23.1,146.5,23.1z"/>
<path d="M82,22.4c-0.5-2.8-1.6-5.3-3.5-7.4c-2.7-3-6.2-4.3-10.2-4.3c-0.6,0-1.2,0-1.8,0.1c-5,0.6-8.6,3.2-10.8,7.8
	c-1.7,3.7-1.9,7.6-1.1,11.6c0.7,3.2,2.1,5.9,4.6,8.1c3.2,2.7,6.9,3.5,10.9,3c5.3-0.7,8.9-3.5,10.9-8.4C82.4,29.4,82.6,26,82,22.4z
	 M74.1,31.8c-1.1,2.5-3.2,3.7-6,3.7c-3.1-0.1-5-1.7-6.1-4.5c-0.8-2-0.9-4-0.8-6.1c0.1-1.6,0.4-3.1,1.1-4.6c1-2.1,2.6-3.4,4.9-3.7
	c0.4-0.1,0.7-0.1,1-0.1c2.9,0,5,1.3,6.1,3.8C75.9,24.1,75.9,28,74.1,31.8z"/>
<path fill="#939598" d="M279.5,53.2c-1.5-0.4-3.1-0.3-4.7-0.1c-0.3,0-0.4,0.2-0.4,0.5c0,1.5,0,2.9,0,4.4c0,1.5,0,2.9,0,4.4
	c0,0.4,0.1,0.5,0.5,0.5c0.8,0.1,1.6,0.1,2.4,0.1c0.9,0,1.7-0.1,2.6-0.4c1.8-0.7,3.1-2.2,3-5.1C282.7,55.3,281.5,53.7,279.5,53.2z
	 M280.8,58.9c-0.3,1.6-1.4,2.4-3.2,2.5c-1.4,0.1-1.4,0.1-1.4-1.3c0-0.7,0-1.4,0-2.2c0-1,0-2,0-2.9c0-0.3,0.1-0.5,0.4-0.5
	c0.6,0,1.1,0,1.7,0.1c1.5,0.3,2.4,1.2,2.5,2.7C280.9,57.8,281,58.3,280.8,58.9z"/>
<path fill="#939598" d="M97.2,62.5c-0.3-0.6-0.6-1.2-1-1.8c-0.4-0.6-0.9-1.3-1.3-1.9c0.8-0.3,1.5-0.8,1.8-1.7
	c0.5-1.8-0.1-3.4-2.2-3.9c-1.5-0.4-3-0.2-4.5-0.1c-0.3,0-0.3,0.3-0.3,0.5c0,2.9,0,5.9,0,8.8c0,0.3,0.1,0.5,0.4,0.4
	c0.3,0,0.6,0,0.9,0c0.3,0,0.4-0.1,0.4-0.4c0-0.8,0-1.6,0-2.5c0-1-0.1-0.8,0.9-0.9c0.4,0,0.7,0,1,0.4c0.5,0.7,1.1,1.3,1.4,2.1
	c0.4,1.1,1.2,1.4,2.2,1.2c0,0,0.1,0,0.1,0C97.3,62.8,97.3,62.7,97.2,62.5z M93.7,57.5c-0.6,0.2-1.3,0.2-2,0.2
	c-0.2,0-0.3-0.1-0.3-0.3c0-0.4,0-0.9,0-1.3c0-0.4,0-0.8,0-1.2c0-0.2,0-0.3,0.3-0.3c0.7,0,1.4-0.1,2.1,0.2c0.7,0.2,1,0.7,1,1.5
	C94.8,56.9,94.5,57.3,93.7,57.5z"/>
<path fill="#939598" d="M71.6,53.1c-0.7-0.2-1.5-0.2-2.3-0.2c-0.6,0-1.2,0-1.9,0.1c-0.4,0-0.6,0.2-0.6,0.6c0,2.6,0,5.2,0,7.9
	c0,1.4,0,1.4,1.4,1.3c0.3,0,0.4-0.1,0.4-0.4c0-0.9,0-1.8,0-2.7c0-0.3,0.1-0.4,0.4-0.4c0.8,0,1.6,0,2.4-0.2c1.6-0.3,2.6-1.4,2.6-2.9
	C74.1,54.6,73.3,53.6,71.6,53.1z M71.1,57.6c-0.5,0.2-1,0.2-1.4,0.2c-1,0-1,0-1-1c0-0.6,0-1.3,0-1.9c0-0.3,0.1-0.4,0.4-0.4
	c0.7,0,1.4,0,2,0.2c0.7,0.2,1.1,0.7,1.1,1.5C72.2,56.9,71.8,57.4,71.1,57.6z"/>
</svg>
