<svg xmlns="http://www.w3.org/2000/svg" width="86.602" height="106.298" viewBox="0 0 86.602 106.298">
  <g id="Path_163" data-name="Path 163" transform="translate(-231.852 -143.064)" fill="#d51030" stroke-miterlimit="10">
    <path d="M 275.1528625488281 248.2072143554688 L 232.8516540527344 223.7845916748047 L 232.8516540527344 174.9393310546875 L 275.1528625488281 150.5167388916016 L 317.4541015625 174.9393310546875 L 317.4541015625 223.7845916748047 L 275.1528625488281 248.2072143554688 Z" stroke="none"/>
    <path d="M 275.1528625488281 247.0525054931641 L 316.4541015625 223.2072296142578 L 316.4541015625 175.5166931152344 L 275.1528625488281 151.6714324951172 L 233.8516540527344 175.5166931152344 L 233.8516540527344 223.2072296142578 L 275.1528625488281 247.0525054931641 M 275.1528625488281 249.3619079589844 L 231.8516540527344 224.3619384765625 L 231.8516540527344 174.3619842529297 L 275.1528625488281 149.3620300292969 L 318.4541015625 174.3619842529297 L 318.4541015625 224.3619384765625 L 275.1528625488281 249.3619079589844 Z" stroke="none" fill="#fff"/>
  </g>
  <line id="Line_46" data-name="Line 46" y1="43.799" transform="translate(43.301 62.499)" fill="none" stroke="#fff" stroke-miterlimit="10" stroke-width="2"/>
  <g id="Path_164" data-name="Path 164" transform="translate(-231.852 -142.431)" fill="#d51030" stroke-miterlimit="10" fill-rule="evenodd">
    <path d="M 250.3035583496094 222.1601104736328 L 259.6372680664062 193.6197662353516 L 259.864013671875 192.9263763427734 L 259.2729797363281 192.4987487792969 L 234.9479675292969 174.8992462158203 L 264.9747314453125 174.9568328857422 L 265.7043151855469 174.9582366943359 L 265.9283447265625 174.2638854980469 L 275.1487121582031 145.6866607666016 L 284.3735656738281 174.2642517089844 L 284.5977172851562 174.9586029052734 L 285.3273315429688 174.9570617675781 L 315.3573913574219 174.8942565917969 L 291.0285339355469 192.498779296875 L 290.4374694824219 192.9264526367188 L 290.664306640625 193.6198425292969 L 299.9985961914062 222.1532745361328 L 275.7398681640625 204.4569396972656 L 275.1504211425781 204.0269317626953 L 274.56103515625 204.4570617675781 L 250.3035583496094 222.1601104736328 Z" stroke="none"/>
    <path d="M 275.14892578125 148.9426422119141 L 266.4319763183594 175.9596405029297 L 238.0442810058594 175.9051818847656 L 261.041259765625 192.5438232421875 L 252.21728515625 219.5254821777344 L 275.1502685546875 202.7890319824219 L 298.0848083496094 219.5193939208984 L 289.2601928710938 192.5439910888672 L 312.2606201171875 175.9007415771484 L 283.8702087402344 175.9600982666016 L 275.14892578125 148.9426422119141 M 275.1484680175781 142.4306488037109 L 285.3252258300781 173.9570617675781 L 318.4541015625 173.8877716064453 L 291.61474609375 193.3089294433594 L 301.9123840332031 224.7871246337891 L 275.1505432128906 205.2648162841797 L 248.3898315429688 224.7947235107422 L 258.6867980957031 193.3089294433594 L 231.8516540527344 173.8932952880859 L 264.9766540527344 173.9568328857422 L 275.1484680175781 142.4306488037109 Z" stroke="none" fill="#fff"/>
  </g>
</svg>
