<svg xmlns="http://www.w3.org/2000/svg" xmlns:xlink="http://www.w3.org/1999/xlink" width="950" height="968.445" viewBox="0 0 950 968.445">
  <defs>
    <filter id="Ellipse_2" x="54.5" y="135.445" width="833" height="833" filterUnits="userSpaceOnUse">
      <feOffset dy="55" input="SourceAlpha"/>
      <feGaussianBlur stdDeviation="49.5" result="blur"/>
      <feFlood flood-color="#d51030" flood-opacity="0.114"/>
      <feComposite operator="in" in2="blur"/>
      <feComposite in="SourceGraphic"/>
    </filter>
    <linearGradient id="linear-gradient" x1="0.5" y1="0.072" x2="0.5" y2="1" gradientUnits="objectBoundingBox">
      <stop offset="0" stop-color="#fff" stop-opacity="0"/>
      <stop offset="1" stop-color="#d51030"/>
    </linearGradient>
    <filter id="Path_42" x="429.035" y="662.184" width="88.301" height="95" filterUnits="userSpaceOnUse">
      <feOffset dx="2" dy="5" input="SourceAlpha"/>
      <feGaussianBlur stdDeviation="7.5" result="blur-2"/>
      <feFlood flood-color="#cd0f2e" flood-opacity="0.404"/>
      <feComposite operator="in" in2="blur-2"/>
      <feComposite in="SourceGraphic"/>
    </filter>
  </defs>
  <g transform="matrix(1, 0, 0, 1, 0, 0)" filter="url(#Ellipse_2)">
    <circle id="Ellipse_2-2" data-name="Ellipse 2" cx="268" cy="268" r="268" transform="translate(203 228.95)" fill="#fff"/>
  </g>
  <g id="Group_19" data-name="Group 19" transform="translate(-529.5 -2144.316)">
    <g id="Ellipse_2-3" data-name="Ellipse 2" transform="translate(831.138 2380.625)">
      <g id="Group_17" data-name="Group 17">
        <path id="Path_41" data-name="Path 41" d="M169.362,469.875c-72.287,0-140.263-15.752-191.406-44.354-51.327-28.7-79.594-66.934-79.594-107.646s28.267-78.941,79.594-107.646c51.143-28.6,119.119-44.354,191.406-44.354s140.264,15.752,191.408,44.354c51.326,28.705,79.592,66.934,79.592,107.646S412.1,396.816,360.77,425.521C309.626,454.123,241.65,469.875,169.362,469.875Zm0-302c-148.327,0-269,67.29-269,150s120.673,150,269,150,269-67.29,269-150S317.689,167.875,169.362,167.875Z" fill="url(#linear-gradient)"/>
      </g>
    </g>
    <g id="Group_18" data-name="Group 18">
      <g transform="matrix(1, 0, 0, 1, 529.5, 2144.32)" filter="url(#Path_42)">
        <path id="Path_42-2" data-name="Path 42" d="M-32.347,153.651v-25L-54,116.151l-21.651,12.5v25L-54,166.151Z" transform="translate(525.18 563.53)" fill="#d51030"/>
      </g>
      <path id="Path_909" data-name="Path 909" d="M-5.625-.773a.793.793,0,0,0,.264-.615.9.9,0,0,0-.246-.58.8.8,0,0,0-.615-.246H-8.016V-5.766h3.551v1.793a.8.8,0,0,0,.246.615.9.9,0,0,0,.58.246.793.793,0,0,0,.615-.264L-.246-6.152A.814.814,0,0,0,0-6.75a.814.814,0,0,0-.246-.6l-2.777-2.777a.915.915,0,0,0-.615-.246.794.794,0,0,0-.58.246.814.814,0,0,0-.246.6v1.793H-8.016v-3.551h1.793a.814.814,0,0,0,.6-.246.794.794,0,0,0,.246-.58.915.915,0,0,0-.246-.615L-8.4-15.5A.814.814,0,0,0-9-15.75a.814.814,0,0,0-.6.246l-2.777,2.777a.793.793,0,0,0-.264.615.9.9,0,0,0,.246.58.8.8,0,0,0,.615.246h1.793v3.551h-3.551V-9.527a.8.8,0,0,0-.246-.615.9.9,0,0,0-.58-.246.793.793,0,0,0-.615.264l-2.777,2.777a.814.814,0,0,0-.246.6.814.814,0,0,0,.246.6l2.777,2.777a.915.915,0,0,0,.615.246.794.794,0,0,0,.58-.246.814.814,0,0,0,.246-.6V-5.766h3.551v3.551h-1.793a.814.814,0,0,0-.6.246.794.794,0,0,0-.246.58.915.915,0,0,0,.246.615L-9.6,2A.814.814,0,0,0-9,2.25.814.814,0,0,0-8.4,2Z" transform="translate(1009.686 2856)" fill="#fff"/>
    </g>
  </g>
</svg>
