<svg xmlns="http://www.w3.org/2000/svg" width="20" height="16" viewBox="0 0 20 16">
  <path id="Path_953" data-name="Path 953" d="M1.5-1h8.719a7.1,7.1,0,0,0,.375,1H1.5A1.447,1.447,0,0,1,.437-.437,1.447,1.447,0,0,1,0-1.5v-8a1.447,1.447,0,0,1,.437-1.062A1.447,1.447,0,0,1,1.5-11H5v-2.25a.723.723,0,0,1,.219-.531A.723.723,0,0,1,5.75-14h4.5a.723.723,0,0,1,.531.219A.723.723,0,0,1,11-13.25V-11h3.5a1.447,1.447,0,0,1,1.062.437A1.447,1.447,0,0,1,16-9.5v1.531A4.583,4.583,0,0,0,15.5-8a4.583,4.583,0,0,0-.5.031V-9.5a.487.487,0,0,0-.141-.359A.487.487,0,0,0,14.5-10H1.5a.487.487,0,0,0-.359.141A.487.487,0,0,0,1-9.5V-7H12.344A5.579,5.579,0,0,0,11.25-6H10v1.25a.723.723,0,0,1-.219.531A.723.723,0,0,1,9.25-4H6.75a.723.723,0,0,1-.531-.219A.723.723,0,0,1,6-4.75V-6H1v4.5a.487.487,0,0,0,.141.359A.487.487,0,0,0,1.5-1ZM7-6v1H9V-6ZM6-13v2h4v-2ZM17.187-3a.3.3,0,0,1,.219.094.3.3,0,0,1,.094.219v.375a.3.3,0,0,1-.094.219A.3.3,0,0,1,17.187-2H15.312a.3.3,0,0,1-.219-.094A.3.3,0,0,1,15-2.312V-4.687a.3.3,0,0,1,.094-.219A.3.3,0,0,1,15.312-5h.375a.3.3,0,0,1,.219.094A.3.3,0,0,1,16-4.687V-3ZM15.5-7a4.343,4.343,0,0,1,2.25.609A4.586,4.586,0,0,1,19.391-4.75,4.343,4.343,0,0,1,20-2.5a4.343,4.343,0,0,1-.609,2.25A4.586,4.586,0,0,1,17.75,1.391,4.343,4.343,0,0,1,15.5,2a4.343,4.343,0,0,1-2.25-.609A4.586,4.586,0,0,1,11.609-.25,4.343,4.343,0,0,1,11-2.5a4.343,4.343,0,0,1,.609-2.25A4.586,4.586,0,0,1,13.25-6.391,4.343,4.343,0,0,1,15.5-7Zm0,8A3.443,3.443,0,0,0,17.25.531,3.438,3.438,0,0,0,18.531-.75,3.443,3.443,0,0,0,19-2.5a3.443,3.443,0,0,0-.469-1.75A3.438,3.438,0,0,0,17.25-5.531,3.443,3.443,0,0,0,15.5-6a3.443,3.443,0,0,0-1.75.469A3.438,3.438,0,0,0,12.469-4.25,3.443,3.443,0,0,0,12-2.5a3.443,3.443,0,0,0,.469,1.75A3.438,3.438,0,0,0,13.75.531,3.443,3.443,0,0,0,15.5,1Z" transform="translate(0 14)" fill="#d6213b"/>
</svg>
