<svg xmlns="http://www.w3.org/2000/svg" width="15.5" height="15.5" viewBox="0 0 15.5 15.5">
  <path id="Path_952" data-name="Path 952" d="M8-13.75A7.513,7.513,0,0,1,11.875-12.7,7.831,7.831,0,0,1,14.7-9.875,7.513,7.513,0,0,1,15.75-6,7.513,7.513,0,0,1,14.7-2.125,7.831,7.831,0,0,1,11.875.7,7.513,7.513,0,0,1,8,1.75,7.513,7.513,0,0,1,4.125.7,7.831,7.831,0,0,1,1.3-2.125,7.513,7.513,0,0,1,.25-6,7.513,7.513,0,0,1,1.3-9.875,7.831,7.831,0,0,1,4.125-12.7,7.513,7.513,0,0,1,8-13.75ZM14.75-6a6.587,6.587,0,0,0-.906-3.391,6.719,6.719,0,0,0-2.469-2.453,6.641,6.641,0,0,0-3.391-.906,6.558,6.558,0,0,0-3.375.906A6.719,6.719,0,0,0,2.156-9.375,6.641,6.641,0,0,0,1.25-5.984a6.558,6.558,0,0,0,.906,3.375A6.719,6.719,0,0,0,4.625-.156,6.641,6.641,0,0,0,8.016.75a6.558,6.558,0,0,0,3.375-.906,6.719,6.719,0,0,0,2.453-2.469A6.613,6.613,0,0,0,14.75-6Zm-7.187.906a.307.307,0,0,1-.156-.281v-5a.362.362,0,0,1,.109-.266.362.362,0,0,1,.266-.109h.437a.362.362,0,0,1,.266.109.362.362,0,0,1,.109.266v4.562l2.219,1.625a.331.331,0,0,1,.141.234.364.364,0,0,1-.078.266l-.25.375a.342.342,0,0,1-.25.141.389.389,0,0,1-.281-.078Z" transform="translate(-0.25 13.75)" fill="#d6213b"/>
</svg>
