
<svg version="1.0" xmlns="http://www.w3.org/2000/svg"
 width="150.000000pt" height="119.000000pt" viewBox="0 0 150.000000 119.000000"
 preserveAspectRatio="xMidYMid meet">

<g transform="translate(0.000000,119.000000) scale(0.100000,-0.100000)"
fill="#000000" stroke="none">
<path d="M433 982 c-159 -57 -234 -203 -187 -362 22 -73 107 -159 182 -184 72
-24 171 -19 232 13 98 50 147 123 162 238 11 91 34 134 85 158 45 21 119 16
156 -11 53 -40 62 -68 67 -222 5 -136 6 -145 29 -163 33 -27 66 -24 91 8 20
26 21 37 18 183 -3 152 -4 156 -34 210 -114 202 -409 195 -515 -12 -12 -23
-25 -72 -30 -110 -10 -82 -30 -123 -71 -148 -84 -51 -183 -24 -226 60 -39 76
-18 145 59 198 49 34 124 27 177 -15 l38 -31 34 65 c37 72 40 66 -43 109 -66
34 -155 41 -224 16z"/>
<path d="M799 539 c-13 -24 -48 -61 -77 -83 -29 -23 -61 -55 -71 -72 -43 -72
-163 -85 -225 -25 -42 41 -86 42 -116 4 -38 -48 -10 -97 83 -149 45 -25 62
-29 132 -29 67 0 88 5 131 27 54 28 112 86 140 140 15 28 38 214 29 226 -2 2
-13 -16 -26 -39z"/>
</g>
</svg>
