<svg xmlns="http://www.w3.org/2000/svg" width="23.632" height="21" viewBox="0 0 23.632 21">
  <path id="Path_958" data-name="Path 958" d="M19.688-10.5a4.691,4.691,0,0,1,1.682.369,4.838,4.838,0,0,1,1.559.943,1.759,1.759,0,0,1,.7,1.313,1.759,1.759,0,0,1-.7,1.313,4.838,4.838,0,0,1-1.559.943,4.691,4.691,0,0,1-1.682.369H15.012L10.705,2.3a.643.643,0,0,1-.574.328H6.48a.589.589,0,0,1-.513-.267.629.629,0,0,1-.1-.554L7.875-5.25H5.25L3.486-2.871a.661.661,0,0,1-.533.246H.656a.6.6,0,0,1-.513-.246A.763.763,0,0,1,0-3.445l1.313-4.43L0-12.3a.763.763,0,0,1,.144-.574.6.6,0,0,1,.513-.246h2.3a.661.661,0,0,1,.533.246L5.25-10.5H7.875l-2.01-7.055a.629.629,0,0,1,.1-.554.589.589,0,0,1,.513-.267h3.65a.643.643,0,0,1,.574.328L15.012-10.5Zm0,3.938a3.543,3.543,0,0,0,1.682-.492q.9-.492.943-.82-.041-.328-.943-.82a3.543,3.543,0,0,0-1.682-.492H14.232L9.721-17.062H7.383L9.6-9.187h-5L2.625-11.812H1.518L2.666-7.875,1.518-3.937H2.625L4.594-6.562h5L7.383,1.313H9.721l4.512-7.875Z" transform="translate(0.007 18.375)" fill="#fff"/>
</svg>
