<svg xmlns="http://www.w3.org/2000/svg" width="18.375" height="21" viewBox="0 0 18.375 21">
  <path id="Path_957" data-name="Path 957" d="M7.875,34.014a.49.49,0,0,0-.492-.492H5.742a.49.49,0,0,0-.492.492v1.641a.49.49,0,0,0,.492.492H7.383a.49.49,0,0,0,.492-.492Zm4.758-.492a.49.49,0,0,1,.492.492v1.641a.49.49,0,0,1-.492.492H10.992a.49.49,0,0,1-.492-.492V34.014a.49.49,0,0,1,.492-.492Zm-5.25,3.938a.49.49,0,0,1,.492.492v1.641a.49.49,0,0,1-.492.492H5.742a.49.49,0,0,1-.492-.492V37.951a.49.49,0,0,1,.492-.492Zm5.25,0a.49.49,0,0,1,.492.492v1.641a.49.49,0,0,1-.492.492H10.992a.49.49,0,0,1-.492-.492V37.951a.49.49,0,0,1,.492-.492ZM7.383,41.4a.49.49,0,0,1,.492.492v1.641a.49.49,0,0,1-.492.492H5.742a.49.49,0,0,1-.492-.492V41.889a.49.49,0,0,1,.492-.492Zm5.25,0a.49.49,0,0,1,.492.492v1.641a.49.49,0,0,1-.492.492H10.992a.49.49,0,0,1-.492-.492V41.889a.49.49,0,0,1,.492-.492ZM18.375,49.8a.49.49,0,0,0-.492-.492h-.82v-18.7a.98.98,0,0,0-.984-.984H2.3a.98.98,0,0,0-.984.984v18.7H.492a.475.475,0,0,0-.349.144A.475.475,0,0,0,0,49.8v.82H18.375Zm-2.625-.492H10.5V45.826a.49.49,0,0,0-.492-.492H8.367a.49.49,0,0,0-.492.492v3.486H2.625V30.938H15.75Z" transform="translate(0 -29.625)" fill="#fff"/>
</svg>
