<svg xmlns="http://www.w3.org/2000/svg" width="20.344" height="20.344" viewBox="0 0 20.344 20.344">
  <path id="Path_958" data-name="Path 958" d="M10.5-18.047a9.86,9.86,0,0,1,5.086,1.374A10.278,10.278,0,0,1,19.3-12.961a9.86,9.86,0,0,1,1.374,5.086A9.86,9.86,0,0,1,19.3-2.789,10.278,10.278,0,0,1,15.586.923,9.86,9.86,0,0,1,10.5,2.3,9.86,9.86,0,0,1,5.414.923,10.278,10.278,0,0,1,1.7-2.789,9.86,9.86,0,0,1,.328-7.875,9.86,9.86,0,0,1,1.7-12.961a10.278,10.278,0,0,1,3.712-3.712A9.86,9.86,0,0,1,10.5-18.047ZM19.359-7.875a8.645,8.645,0,0,0-1.189-4.45,8.819,8.819,0,0,0-3.24-3.22,8.717,8.717,0,0,0-4.45-1.189,8.607,8.607,0,0,0-4.43,1.189A8.819,8.819,0,0,0,2.83-12.3a8.717,8.717,0,0,0-1.189,4.45A8.607,8.607,0,0,0,2.83-3.425,8.819,8.819,0,0,0,6.07-.205,8.717,8.717,0,0,0,10.521.984,8.607,8.607,0,0,0,14.95-.205a8.819,8.819,0,0,0,3.22-3.24A8.679,8.679,0,0,0,19.359-7.875ZM13.248-4.266a.51.51,0,0,0,.369.1.449.449,0,0,0,.328-.185l.328-.492a.478.478,0,0,0,.1-.349.435.435,0,0,0-.185-.308L11.279-7.629v-5.988a.475.475,0,0,0-.144-.349.475.475,0,0,0-.349-.144h-.574a.475.475,0,0,0-.349.144.475.475,0,0,0-.144.349v6.563a.4.4,0,0,0,.205.369Z" transform="translate(-0.328 18.047)" fill="#fff"/>
</svg>
