<svg xmlns="http://www.w3.org/2000/svg" width="21" height="18.375" viewBox="0 0 21 18.375">
  <path id="Path_957" data-name="Path 957" d="M13.289-15.75H7.916a.6.6,0,0,0-.369.123.814.814,0,0,0-.246.287l-.82,2.215H1.969a.639.639,0,0,0-.472.185.639.639,0,0,0-.185.472V-.656A.639.639,0,0,0,1.5-.185.639.639,0,0,0,1.969,0H19.031A.639.639,0,0,0,19.5-.185a.639.639,0,0,0,.185-.472V-12.469a.639.639,0,0,0-.185-.472.639.639,0,0,0-.472-.185H14.52l-.9-2.42A.319.319,0,0,0,13.289-15.75Zm0-1.312a1.6,1.6,0,0,1,.943.287,1.747,1.747,0,0,1,.615.779l.574,1.559h3.609a1.9,1.9,0,0,1,1.395.574A1.9,1.9,0,0,1,21-12.469V-.656A1.9,1.9,0,0,1,20.426.738a1.9,1.9,0,0,1-1.395.574H1.969A1.9,1.9,0,0,1,.574.738,1.9,1.9,0,0,1,0-.656V-12.469a1.9,1.9,0,0,1,.574-1.395,1.9,1.9,0,0,1,1.395-.574H5.578l.492-1.354a2.138,2.138,0,0,1,.738-.923,1.87,1.87,0,0,1,1.107-.349ZM10.5-1.641A4.846,4.846,0,0,0,12.981-2.3a4.856,4.856,0,0,0,1.784-1.784,4.846,4.846,0,0,0,.656-2.481,4.846,4.846,0,0,0-.656-2.481,4.856,4.856,0,0,0-1.784-1.784,4.846,4.846,0,0,0-2.481-.656,4.846,4.846,0,0,0-2.481.656A4.856,4.856,0,0,0,6.234-9.044a4.846,4.846,0,0,0-.656,2.481,4.846,4.846,0,0,0,.656,2.481A4.856,4.856,0,0,0,8.019-2.3,4.846,4.846,0,0,0,10.5-1.641Zm0-8.531a3.472,3.472,0,0,1,2.543,1.066,3.472,3.472,0,0,1,1.066,2.543A3.472,3.472,0,0,1,13.043-4.02,3.472,3.472,0,0,1,10.5-2.953,3.472,3.472,0,0,1,7.957-4.02,3.472,3.472,0,0,1,6.891-6.562,3.472,3.472,0,0,1,7.957-9.105,3.472,3.472,0,0,1,10.5-10.172Z" transform="translate(0 17.063)" fill="#fff"/>
</svg>
