<svg xmlns="http://www.w3.org/2000/svg" width="18.396" height="21" viewBox="0 0 18.396 21">
  <path id="Path_958" data-name="Path 958" d="M18.293-4.348a1.14,1.14,0,0,1-.164,1.169,1.269,1.269,0,0,1-1.066.554V2.3a.353.353,0,0,1-.328.328h-.656A.353.353,0,0,1,15.75,2.3V-2.625H2.625V2.3a.353.353,0,0,1-.328.328H1.641a.314.314,0,0,1-.226-.1.314.314,0,0,1-.1-.226V-2.625A1.269,1.269,0,0,1,.246-3.179,1.14,1.14,0,0,1,.082-4.348l.9-2.625a1.206,1.206,0,0,1,.472-.656,1.289,1.289,0,0,1,.759-.246h.41v-5.25a5.206,5.206,0,0,1,.7-2.646,5.107,5.107,0,0,1,1.907-1.907,5.206,5.206,0,0,1,2.646-.7H10.5a5.206,5.206,0,0,1,2.646.7,5.107,5.107,0,0,1,1.907,1.907,5.206,5.206,0,0,1,.7,2.646v5.25h.41a1.289,1.289,0,0,1,.759.246,1.206,1.206,0,0,1,.472.656Zm-6.48-12.469v8.941h2.625v-5.25A3.748,3.748,0,0,0,13.7-15.4,3.943,3.943,0,0,0,11.813-16.816Zm-3.937-.246v9.188H10.5v-9.187ZM3.938-13.125v5.25H6.563v-8.941A3.943,3.943,0,0,0,4.676-15.4,3.748,3.748,0,0,0,3.938-13.125ZM1.313-3.937h15.75l-.9-2.625H2.215Z" transform="translate(0.01 18.375)" fill="#fff"/>
</svg>
