<svg xmlns="http://www.w3.org/2000/svg" width="21" height="21" viewBox="0 0 21 21">
  <path id="Path_957" data-name="Path 957" d="M21-17.062V-3.281A2.93,2.93,0,0,1,19.852-.964,4.194,4.194,0,0,1,17.063,0a4.194,4.194,0,0,1-2.789-.964,2.93,2.93,0,0,1-1.148-2.317A2.93,2.93,0,0,1,14.273-5.6a4.194,4.194,0,0,1,2.789-.964,4.26,4.26,0,0,1,2.625.861v-6.111L7.875-7.875V-.656A2.93,2.93,0,0,1,6.727,1.661a4.194,4.194,0,0,1-2.789.964,4.194,4.194,0,0,1-2.789-.964A2.93,2.93,0,0,1,0-.656,2.93,2.93,0,0,1,1.148-2.974a4.194,4.194,0,0,1,2.789-.964,4.26,4.26,0,0,1,2.625.861V-13.125a1.289,1.289,0,0,1,.246-.759,1.215,1.215,0,0,1,.615-.472l11.936-3.937a1.008,1.008,0,0,1,.369-.082,1.2,1.2,0,0,1,.9.39A1.3,1.3,0,0,1,21-17.062ZM3.938,1.313A3.026,3.026,0,0,0,5.783.738,1.691,1.691,0,0,0,6.563-.656a1.691,1.691,0,0,0-.779-1.395,3.026,3.026,0,0,0-1.846-.574,3.026,3.026,0,0,0-1.846.574A1.691,1.691,0,0,0,1.313-.656,1.691,1.691,0,0,0,2.092.738,3.026,3.026,0,0,0,3.938,1.313Zm15.75-14.52v-3.814l-11.854,3.9h.041V-9.27ZM17.063-1.312a3.026,3.026,0,0,0,1.846-.574,1.691,1.691,0,0,0,.779-1.395,1.691,1.691,0,0,0-.779-1.395,3.026,3.026,0,0,0-1.846-.574,3.026,3.026,0,0,0-1.846.574,1.691,1.691,0,0,0-.779,1.395,1.691,1.691,0,0,0,.779,1.395A3.026,3.026,0,0,0,17.063-1.312Z" transform="translate(0 18.375)" fill="#fff"/>
</svg>
