<svg xmlns="http://www.w3.org/2000/svg" width="20.016" height="20.344" viewBox="0 0 20.016 20.344">
  <path id="Path_958" data-name="Path 958" d="M20.016-7.629a9.638,9.638,0,0,0-.164-1.723h-9.68v3.527h5.783a5.472,5.472,0,0,1-.7,1.8,5.679,5.679,0,0,1-1.846,1.764,6.272,6.272,0,0,1-3.24.82,5.918,5.918,0,0,1-3.158-.882,6.715,6.715,0,0,1-2.3-2.338,6.206,6.206,0,0,1-.861-3.22,6.258,6.258,0,0,1,1.107-3.65A6.321,6.321,0,0,1,7.67-13.74a6.157,6.157,0,0,1,3.4-.492,5.458,5.458,0,0,1,3.158,1.518l2.748-2.666a9.576,9.576,0,0,0-6.809-2.666,9.86,9.86,0,0,0-5.086,1.374,10.278,10.278,0,0,0-3.712,3.712A9.86,9.86,0,0,0,0-7.875,9.86,9.86,0,0,0,1.374-2.789,10.278,10.278,0,0,0,5.086.923,9.86,9.86,0,0,0,10.172,2.3a10.228,10.228,0,0,0,5.147-1.271A8.868,8.868,0,0,0,18.785-2.5,10.531,10.531,0,0,0,20.016-7.629Z" transform="translate(0 18.047)" fill="#fff"/>
</svg>
