<svg xmlns="http://www.w3.org/2000/svg" width="21" height="18.396" viewBox="0 0 21 18.396">
  <path id="Path_957" data-name="Path 957" d="M20.344,0A.632.632,0,0,1,21,.656V.984a.314.314,0,0,1-.1.226.314.314,0,0,1-.226.1H.328A.314.314,0,0,1,.1,1.21.314.314,0,0,1,0,.984V.656A.632.632,0,0,1,.656,0h.656V-1.641a.949.949,0,0,1,.287-.7.949.949,0,0,1,.7-.287H3.938V-9.844H5.25v7.219H7.875V-9.844H9.188v7.219h2.625V-9.844h1.313v7.219H15.75V-9.844h1.313v7.219H18.7a.949.949,0,0,1,.7.287.949.949,0,0,1,.287.7V0ZM2.625-1.312V0h15.75V-1.312ZM20.672-12.8a.451.451,0,0,1,.328.451v.369a.475.475,0,0,1-.144.349.475.475,0,0,1-.349.144h-.82v.492a.475.475,0,0,1-.144.349.475.475,0,0,1-.349.144H1.8a.475.475,0,0,1-.349-.144.475.475,0,0,1-.144-.349v-.492H.492a.475.475,0,0,1-.349-.144A.475.475,0,0,1,0-11.977v-.369A.451.451,0,0,1,.328-12.8L9.885-16.98a1.9,1.9,0,0,1,1.23,0Zm-2.3.984v-.574l-7.711-3.322a.349.349,0,0,0-.328,0L2.625-12.387v.574Z" transform="translate(0 17.083)" fill="#fff"/>
</svg>
