<svg xmlns="http://www.w3.org/2000/svg" width="23.625" height="18.375" viewBox="0 0 23.625 18.375">
  <path id="Path_957" data-name="Path 957" d="M21.656-17.062a1.9,1.9,0,0,1,1.395.574,1.9,1.9,0,0,1,.574,1.395V-3.281a1.9,1.9,0,0,1-.574,1.395,1.9,1.9,0,0,1-1.395.574H21v.656A1.9,1.9,0,0,1,20.426.738a1.9,1.9,0,0,1-1.395.574H1.969A1.9,1.9,0,0,1,.574.738,1.9,1.9,0,0,1,0-.656V-12.469a1.9,1.9,0,0,1,.574-1.395,1.9,1.9,0,0,1,1.395-.574h.656v-.656A1.9,1.9,0,0,1,3.2-16.488a1.9,1.9,0,0,1,1.395-.574ZM19.688-.656v-.656H4.594A1.9,1.9,0,0,1,3.2-1.887a1.9,1.9,0,0,1-.574-1.395v-9.844H1.969a.639.639,0,0,0-.472.185.639.639,0,0,0-.185.472V-.656A.639.639,0,0,0,1.5-.185.639.639,0,0,0,1.969,0H19.031A.639.639,0,0,0,19.5-.185.639.639,0,0,0,19.688-.656Zm2.625-2.625V-15.094a.639.639,0,0,0-.185-.472.639.639,0,0,0-.472-.185H4.594a.639.639,0,0,0-.472.185.639.639,0,0,0-.185.472V-3.281a.639.639,0,0,0,.185.472.639.639,0,0,0,.472.185H21.656a.639.639,0,0,0,.472-.185A.639.639,0,0,0,22.313-3.281ZM7.219-10.172a2.21,2.21,0,0,1-1.62-.677,2.21,2.21,0,0,1-.677-1.62,2.21,2.21,0,0,1,.677-1.62,2.21,2.21,0,0,1,1.62-.677,2.21,2.21,0,0,1,1.62.677,2.21,2.21,0,0,1,.677,1.62,2.21,2.21,0,0,1-.677,1.62A2.21,2.21,0,0,1,7.219-10.172Zm0-3.281a.949.949,0,0,0-.7.287.949.949,0,0,0-.287.7.949.949,0,0,0,.287.7.949.949,0,0,0,.7.287.949.949,0,0,0,.7-.287.949.949,0,0,0,.287-.7.949.949,0,0,0-.287-.7A.949.949,0,0,0,7.219-13.453Zm9.885.943L20.713-8.9A.949.949,0,0,1,21-8.2V-4.43a.475.475,0,0,1-.144.349.475.475,0,0,1-.349.144H5.742a.475.475,0,0,1-.349-.144A.475.475,0,0,1,5.25-4.43V-5.578a.949.949,0,0,1,.287-.7L9.146-9.885a.949.949,0,0,1,.7-.287.949.949,0,0,1,.7.287l1.271,1.271,3.9-3.9a.949.949,0,0,1,.7-.287A.949.949,0,0,1,17.1-12.51Zm2.584,7.26V-8.08l-3.281-3.281L11.813-6.768,9.844-8.736,6.563-5.455v.205Z" transform="translate(0 17.063)" fill="#fff"/>
</svg>
         