<svg xmlns="http://www.w3.org/2000/svg" width="15.75" height="21" viewBox="0 0 15.75 21">
  <path id="Path_957" data-name="Path 957" d="M7.875-14.437a3.8,3.8,0,0,1,2.789,1.148A3.8,3.8,0,0,1,11.813-10.5a3.8,3.8,0,0,1-1.148,2.789A3.8,3.8,0,0,1,7.875-6.562,3.8,3.8,0,0,1,5.086-7.711,3.8,3.8,0,0,1,3.938-10.5a3.8,3.8,0,0,1,1.148-2.789A3.8,3.8,0,0,1,7.875-14.437Zm0,6.563a2.523,2.523,0,0,0,1.846-.779A2.523,2.523,0,0,0,10.5-10.5a2.523,2.523,0,0,0-.779-1.846,2.523,2.523,0,0,0-1.846-.779,2.523,2.523,0,0,0-1.846.779A2.523,2.523,0,0,0,5.25-10.5a2.523,2.523,0,0,0,.779,1.846A2.523,2.523,0,0,0,7.875-7.875Zm0-10.5a7.6,7.6,0,0,1,3.938,1.066,8.026,8.026,0,0,1,2.871,2.871A7.6,7.6,0,0,1,15.75-10.5a7.466,7.466,0,0,1-.328,2.317A11.551,11.551,0,0,1,14.15-5.7q-.656,1.025-2.707,3.979L8.7,2.215a.941.941,0,0,1-.82.41.941.941,0,0,1-.82-.41L4.307-1.723Q2.256-4.676,1.6-5.7A11.551,11.551,0,0,1,.328-8.183,7.466,7.466,0,0,1,0-10.5a7.6,7.6,0,0,1,1.066-3.937,8.026,8.026,0,0,1,2.871-2.871A7.6,7.6,0,0,1,7.875-18.375Zm0,19.441,2.543-3.65Q12.387-5.414,13-6.316A12.01,12.01,0,0,0,14.15-8.552a6.026,6.026,0,0,0,.287-1.948,6.479,6.479,0,0,0-.492-2.5,6.522,6.522,0,0,0-1.436-2.133,6.522,6.522,0,0,0-2.133-1.436,6.479,6.479,0,0,0-2.5-.492,6.479,6.479,0,0,0-2.5.492A6.522,6.522,0,0,0,3.24-15.135,6.522,6.522,0,0,0,1.8-13a6.479,6.479,0,0,0-.492,2.5A6.026,6.026,0,0,0,1.6-8.552,12.01,12.01,0,0,0,2.748-6.316q.615.9,2.584,3.732Q6.891-.369,7.875,1.066Z" transform="translate(0 18.375)" fill="#fff"/>
</svg>
