<svg xmlns="http://www.w3.org/2000/svg" width="26.233" height="20.016" viewBox="0 0 26.233 20.016">
  <path id="Path_957" data-name="Path 957" d="M26.086-11.566a1.286,1.286,0,0,1,.1.984,1.2,1.2,0,0,1-.595.779L5.209,1.969a1.259,1.259,0,0,1-.636.164,1.374,1.374,0,0,1-.656-.164,1.1,1.1,0,0,1-.472-.492L.164-4.184a1.286,1.286,0,0,1-.1-.984,1.2,1.2,0,0,1,.595-.779L21.041-17.719a1.259,1.259,0,0,1,.636-.164,1.374,1.374,0,0,1,.656.164,1.1,1.1,0,0,1,.472.492ZM4.594.82H4.553L24.938-10.951,21.7-16.57l-2.83,1.6,1.764,3.117a.307.307,0,0,1,.041.267.277.277,0,0,1-.123.185l-.574.328a.307.307,0,0,1-.267.041.251.251,0,0,1-.185-.164l-1.8-3.117L15.463-13l1.148,2.01a.387.387,0,0,1,.021.226.208.208,0,0,1-.144.185l-.574.328a.271.271,0,0,1-.246.041.4.4,0,0,1-.205-.164l-1.148-1.969-2.256,1.313,1.8,3.117a.271.271,0,0,1,.041.246.4.4,0,0,1-.164.205l-.574.328a.5.5,0,0,1-.246.021.3.3,0,0,1-.205-.144l-1.764-3.117-2.3,1.313L9.8-7.1a.271.271,0,0,1,.041.246.4.4,0,0,1-.164.205l-.574.328A.387.387,0,0,1,8.88-6.3.208.208,0,0,1,8.7-6.439L7.547-8.408,5.291-7.137,7.055-4.02a.307.307,0,0,1,.041.267.251.251,0,0,1-.164.185L6.4-3.24a.307.307,0,0,1-.267.041.251.251,0,0,1-.185-.164L4.143-6.48,1.313-4.84Z" transform="translate(-0.009 17.883)" fill="#fff"/>
</svg>
