<svg xmlns="http://www.w3.org/2000/svg" width="18.375" height="21" viewBox="0 0 18.375 21">
  <path id="Path_957" data-name="Path 957" d="M14.438-13.125h3.938V-.656a3.16,3.16,0,0,1-.964,2.317,3.16,3.16,0,0,1-2.317.964H3.281A3.16,3.16,0,0,1,.964,1.661,3.16,3.16,0,0,1,0-.656V-13.125H3.938a5.206,5.206,0,0,1,.7-2.646,5.107,5.107,0,0,1,1.907-1.907,5.206,5.206,0,0,1,2.646-.7,5.206,5.206,0,0,1,2.646.7,5.107,5.107,0,0,1,1.907,1.907A5.206,5.206,0,0,1,14.438-13.125Zm-5.25-3.937A3.8,3.8,0,0,0,6.4-15.914,3.8,3.8,0,0,0,5.25-13.125h7.875a3.8,3.8,0,0,0-1.148-2.789A3.8,3.8,0,0,0,9.188-17.062ZM17.063-.656V-11.812H14.438v1.969a.639.639,0,0,1-.185.472.639.639,0,0,1-.472.185.639.639,0,0,1-.472-.185.639.639,0,0,1-.185-.472v-1.969H5.25v1.969a.639.639,0,0,1-.185.472.639.639,0,0,1-.472.185.639.639,0,0,1-.472-.185.639.639,0,0,1-.185-.472v-1.969H1.313V-.656A1.9,1.9,0,0,0,1.887.738a1.9,1.9,0,0,0,1.395.574H15.094A1.9,1.9,0,0,0,16.488.738,1.9,1.9,0,0,0,17.063-.656Z" transform="translate(0 18.375)" fill="#fff"/>
</svg>
