<svg xmlns="http://www.w3.org/2000/svg" width="21" height="15.75" viewBox="0 0 21 15.75">
  <path id="Path_957" data-name="Path 957" d="M19.031-15.75a1.9,1.9,0,0,1,1.395.574A1.9,1.9,0,0,1,21-13.781V-1.969a1.9,1.9,0,0,1-.574,1.395A1.9,1.9,0,0,1,19.031,0H1.969A1.9,1.9,0,0,1,.574-.574,1.9,1.9,0,0,1,0-1.969V-13.781a1.9,1.9,0,0,1,.574-1.395,1.9,1.9,0,0,1,1.395-.574Zm.656,13.781V-13.781a.639.639,0,0,0-.185-.472.639.639,0,0,0-.472-.185H1.969a.639.639,0,0,0-.472.185.639.639,0,0,0-.185.472V-1.969A.639.639,0,0,0,1.5-1.5a.639.639,0,0,0,.472.185H19.031A.639.639,0,0,0,19.5-1.5.639.639,0,0,0,19.688-1.969ZM4.594-8.859a2.21,2.21,0,0,1-1.62-.677,2.21,2.21,0,0,1-.677-1.62,2.21,2.21,0,0,1,.677-1.62,2.21,2.21,0,0,1,1.62-.677,2.21,2.21,0,0,1,1.62.677,2.21,2.21,0,0,1,.677,1.62,2.21,2.21,0,0,1-.677,1.62A2.21,2.21,0,0,1,4.594-8.859Zm0-3.281a.949.949,0,0,0-.7.287.949.949,0,0,0-.287.7.949.949,0,0,0,.287.7.949.949,0,0,0,.7.287.949.949,0,0,0,.7-.287.949.949,0,0,0,.287-.7.949.949,0,0,0-.287-.7A.949.949,0,0,0,4.594-12.141Zm8.49.943a.949.949,0,0,1,.7-.287.949.949,0,0,1,.7.287l3.609,3.609a.949.949,0,0,1,.287.7v3.773a.475.475,0,0,1-.144.349.475.475,0,0,1-.349.144H3.117a.475.475,0,0,1-.349-.144.475.475,0,0,1-.144-.349V-4.266a.949.949,0,0,1,.287-.7L6.521-8.572a.949.949,0,0,1,.7-.287.949.949,0,0,1,.7.287L9.188-7.3Zm3.979,7.26v-2.83l-3.281-3.281L9.188-5.455,7.219-7.424,3.938-4.143v.205Z" transform="translate(0 15.75)" fill="#fff"/>
</svg>
