<svg xmlns="http://www.w3.org/2000/svg" width="26.25" height="15.75" viewBox="0 0 26.25 15.75">
  <path id="Path_957" data-name="Path 957" d="M25.1-12.059a1.567,1.567,0,0,1,.841.595,1.619,1.619,0,0,1,.308.964,1.619,1.619,0,0,1-.308.964,1.567,1.567,0,0,1-.841.595L20.385-7.424,21-2.625q0,.7-1.066,1.313a9.369,9.369,0,0,1-2.871.964A20.785,20.785,0,0,1,13.125,0,20.785,20.785,0,0,1,9.188-.349a9.369,9.369,0,0,1-2.871-.964Q5.25-1.928,5.25-2.625l.615-4.8-2.215-.7a1.892,1.892,0,0,0-.246.533,1.179,1.179,0,0,1,.533,1.025,1.294,1.294,0,0,1-.205.7,1.316,1.316,0,0,1-.533.492L3.938-.779a.8.8,0,0,1-.1.533A.436.436,0,0,1,3.445,0H1.8a.436.436,0,0,1-.39-.246.8.8,0,0,1-.1-.533l.738-4.594a1.316,1.316,0,0,1-.533-.492,1.294,1.294,0,0,1-.205-.7,1.294,1.294,0,0,1,.205-.7,1.316,1.316,0,0,1,.533-.492,3.918,3.918,0,0,1,.328-.779l-1.23-.41a1.567,1.567,0,0,1-.841-.595A1.619,1.619,0,0,1,0-10.5a1.619,1.619,0,0,1,.308-.964,1.567,1.567,0,0,1,.841-.595l10.869-3.527a3.82,3.82,0,0,1,2.215,0ZM19.646-2.707l-.533-4.307-4.881,1.6a3.415,3.415,0,0,1-2.215,0l-4.881-1.6L6.6-2.707a4.438,4.438,0,0,0,1.969.861,17.489,17.489,0,0,0,4.553.533,17.489,17.489,0,0,0,4.553-.533A4.438,4.438,0,0,0,19.646-2.707Zm5.045-7.465a.322.322,0,0,0,.246-.328.322.322,0,0,0-.246-.328L13.822-14.314a2.037,2.037,0,0,0-1.395,0L1.559-10.828a.322.322,0,0,0-.246.328.322.322,0,0,0,.246.328l1.723.533a4,4,0,0,1,1.354-.615L13-11.812a.67.67,0,0,1,.492.123.617.617,0,0,1,.287.431.642.642,0,0,1-.123.492.624.624,0,0,1-.41.267L5.209-9.023l7.219,2.338a2.037,2.037,0,0,0,1.395,0Z" transform="translate(0 15.75)" fill="#fff"/>
</svg>
