<svg xmlns="http://www.w3.org/2000/svg" width="23.625" height="15.75" viewBox="0 0 23.625 15.75">
  <path id="Path_957" data-name="Path 957" d="M22.313-14.437a1.3,1.3,0,0,1,.923.369,1.2,1.2,0,0,1,.39.9V-2.625a1.242,1.242,0,0,1-.39.943,1.3,1.3,0,0,1-.923.369,1.2,1.2,0,0,1-.738-.246L17.063-4.43v2.461a1.837,1.837,0,0,1-.615,1.395A2.14,2.14,0,0,1,14.93,0H2.133A2.14,2.14,0,0,1,.615-.574,1.837,1.837,0,0,1,0-1.969V-13.781a1.837,1.837,0,0,1,.615-1.395,2.14,2.14,0,0,1,1.518-.574h12.8a2.14,2.14,0,0,1,1.518.574,1.837,1.837,0,0,1,.615,1.395v2.461l4.512-2.871A1.2,1.2,0,0,1,22.313-14.437ZM15.75-1.969V-13.781a.566.566,0,0,0-.246-.472.931.931,0,0,0-.574-.185H2.133a.931.931,0,0,0-.574.185.566.566,0,0,0-.246.472V-1.969a.566.566,0,0,0,.246.472.931.931,0,0,0,.574.185h12.8A.931.931,0,0,0,15.5-1.5.566.566,0,0,0,15.75-1.969Zm6.563-.656v-10.5L17.063-9.8v3.814l5.209,3.322Z" transform="translate(0 15.75)" fill="#fff"/>
</svg>
