<svg xmlns="http://www.w3.org/2000/svg" width="20.344" height="20.188" viewBox="0 0 20.344 20.188">
  <path id="Path_958" data-name="Path 958" d="M11.813-17.391A.467.467,0,0,1,12-17.78a.464.464,0,0,1,.39-.1A10.02,10.02,0,0,1,16.611-16a10.358,10.358,0,0,1,2.974,3.548,9.849,9.849,0,0,1,1.087,4.573A9.86,9.86,0,0,1,19.3-2.789,10.329,10.329,0,0,1,15.606.923,9.789,9.789,0,0,1,10.521,2.3,10.013,10.013,0,0,1,5.414.943,10.167,10.167,0,0,1,1.7-2.728,9.827,9.827,0,0,1,.328-7.834a10.169,10.169,0,0,1,1.066-4.573A9.964,9.964,0,0,1,4.368-16a10.177,10.177,0,0,1,4.245-1.887.464.464,0,0,1,.39.1.467.467,0,0,1,.185.39v.328a.5.5,0,0,1-.1.328.516.516,0,0,1-.308.164,8.874,8.874,0,0,0-3.65,1.661,8.785,8.785,0,0,0-2.563,3.1,8.685,8.685,0,0,0-.923,3.938A8.645,8.645,0,0,0,2.83-3.425,8.819,8.819,0,0,0,6.07-.205,8.717,8.717,0,0,0,10.521.984,8.607,8.607,0,0,0,14.95-.205a8.819,8.819,0,0,0,3.22-3.24,8.679,8.679,0,0,0,1.189-4.43,8.616,8.616,0,0,0-.943-3.979,8.888,8.888,0,0,0-2.563-3.076,8.851,8.851,0,0,0-3.63-1.641.516.516,0,0,1-.308-.164.5.5,0,0,1-.1-.328Z" transform="translate(-0.328 17.892)" fill="#fff"/>
</svg>