<svg xmlns="http://www.w3.org/2000/svg" width="23.751" height="23.751" viewBox="0 0 23.751 23.751">
  <path id="person" d="M13.875,13.875A5.938,5.938,0,1,0,7.938,7.938a5.938,5.938,0,0,0,5.938,5.938m3.958-5.938a3.958,3.958,0,1,1-3.958-3.958,3.958,3.958,0,0,1,3.958,3.958m7.917,15.834a1.938,1.938,0,0,1-1.979,1.979H3.979A1.938,1.938,0,0,1,2,23.772c0-1.979,1.979-7.917,11.875-7.917s11.875,5.938,11.875,7.917m-1.979-.008a5.288,5.288,0,0,0-1.647-3.293c-1.29-1.29-3.719-2.636-8.25-2.636S6.916,19.18,5.626,20.47a5.3,5.3,0,0,0-1.647,3.293Z" transform="translate(-2 -2)" fill="##9D7D36"/>
</svg>
