
<svg xmlns="http://www.w3.org/2000/svg" width="19.328" height="13.047" viewBox="0 0 19.328 13.047"><path d="M.072,15.959V5.224q0-.019.056-.354l6.318,5.405-6.3,6.057a1.58,1.58,0,0,1-.075-.373ZM.911,4.124a.8.8,0,0,1,.317-.056H18.244a1.055,1.055,0,0,1,.335.056L12.243,9.548l-.839.671L9.745,11.579,8.086,10.219l-.839-.671ZM.929,17.059l6.356-6.095,2.46,1.994,2.46-1.994,6.356,6.095a.9.9,0,0,1-.317.056H1.228a.844.844,0,0,1-.3-.056Zm12.115-6.784,6.3-5.405a1.112,1.112,0,0,1,.056.354V15.959a1.429,1.429,0,0,1-.056.373Z" transform="translate(-0.072 -4.068)" fill="#9D7D36"/></svg>