<?xml version="1.0" encoding="UTF-8"?>
<svg id="Ebene_1" data-name="Ebene 1" xmlns="http://www.w3.org/2000/svg" version="1.1" viewBox="0 0 60 60">
  <defs>
    <style>
      .cls-1 {
        isolation: isolate;
      }

      .cls-2 {
        fill: #9D7D36;
      }

      .cls-2, .cls-3 {
        stroke-width: 0px;
      }

      .cls-3 {
        fill: #fff;
      }
    </style>
  </defs>
  <g id="Pfeil">
    <circle id="Ellipse_7" data-name="Ellipse 7" class="cls-2" cx="30" cy="30" r="30"/>
    <g id="_" data-name=" " class="cls-1">
      <g class="cls-1">
        <path class="cls-3" d="M20.5,33.4c-1.3,0-2.4-.3-3.3-1-1-.7-1.7-1.6-2.3-2.8-.5-1.2-.8-2.7-.8-4.5,0-2.6.6-4.6,1.8-6.1,1.2-1.4,2.8-2.2,4.6-2.2s3.4.7,4.6,2.2c1.2,1.4,1.8,3.5,1.8,6.1s-.3,3.3-.8,4.5c-.5,1.2-1.3,2.2-2.3,2.8-1,.7-2.1,1-3.3,1ZM20.5,30.3c.7,0,1.3-.4,1.8-1.2.5-.8.7-2.1.7-4s-.2-3.2-.7-4c-.5-.8-1.1-1.2-1.8-1.2s-1.3.4-1.8,1.2c-.5.8-.8,2.1-.8,4s.3,3.2.8,4c.5.8,1.1,1.2,1.8,1.2ZM21.2,44.5l14.2-27.1h3.2l-14.2,27.1h-3.2ZM39.3,44.5c-1.3,0-2.4-.3-3.3-1-1-.7-1.7-1.6-2.3-2.9-.5-1.2-.8-2.7-.8-4.5,0-2.6.6-4.6,1.8-6.1,1.2-1.4,2.7-2.2,4.6-2.2s3.4.7,4.6,2.2c1.2,1.4,1.8,3.5,1.8,6.1s-.3,3.2-.8,4.5-1.3,2.2-2.3,2.9c-1,.7-2.1,1-3.3,1ZM39.3,41.4c.7,0,1.4-.4,1.9-1.2.5-.8.7-2.1.7-4s-.2-3.2-.7-4c-.5-.8-1.1-1.2-1.9-1.2s-1.3.4-1.8,1.2c-.5.8-.8,2.1-.8,4s.3,3.2.8,4c.5.8,1.1,1.2,1.8,1.2Z"/>
      </g>
    </g>
  </g>
</svg>